<svg width="150" height="150" viewBox="0 0 150 150" fill="none" xmlns="http://www.w3.org/2000/svg">
<path d="M150 125C150 138.75 138.75 150 125 150H25C11.25 150 0 138.75 0 125V25C0 11.25 11.25 0 25 0H125C138.75 0 150 11.25 150 25V125Z" fill="#563D7C"/>
<path d="M40.7598 32.5981H83.2843C91.1274 32.5981 97.4265 34.3874 102.157 37.9903C106.887 41.5932 109.265 47.0099 109.265 54.2893C109.265 58.7011 108.186 62.4756 106.029 65.6129C103.873 68.7501 100.784 71.2011 96.7647 72.9168V73.1619C102.157 74.3138 106.25 76.8629 109.02 80.8089C111.789 84.7795 113.186 89.7305 113.186 95.7109C113.186 99.1423 112.574 102.353 111.348 105.319C110.123 108.309 108.211 110.882 105.588 113.039C102.966 115.196 99.6323 116.912 95.5392 118.186C91.4461 119.461 86.5931 120.098 80.9559 120.098H40.7598V32.5981ZM56.0784 69.2403H81.0784C84.7549 69.2403 87.8186 68.2109 90.2696 66.103C92.7206 63.9952 93.9461 61.005 93.9461 57.0834C93.9461 52.6717 92.8431 49.5589 90.6372 47.7697C88.4314 45.9805 85.2451 45.0736 81.0784 45.0736H56.0784V69.2403ZM56.0784 107.598H83.1617C87.8186 107.598 91.4461 106.397 93.9951 103.971C96.5686 101.569 97.8676 98.1374 97.8676 93.7256C97.8676 89.3874 96.5931 86.0785 93.9951 83.7256C91.397 81.3727 87.8186 80.2452 83.1617 80.2452H56.0784V107.598Z" fill="white"/>
</svg>
