<svg width="110" height="150" viewBox="0 0 110 150" fill="none" xmlns="http://www.w3.org/2000/svg">
<path d="M54.9329 149.621L10.1671 137.604L0.191284 29.4041H109.809L99.8223 137.587L54.9329 149.621Z" fill="#264DE4"/>
<path d="M91.2728 130.698L99.8069 38.251H55V140.423L91.2728 130.698Z" fill="#2965F1"/>
<path d="M23.0607 78.3806L24.2907 91.6507H55V78.3806H23.0607Z" fill="#EBEBEB"/>
<path d="M20.5894 51.5215L21.8368 64.7919H55V51.5215H20.5894Z" fill="#EBEBEB"/>
<path d="M55 112.845L54.9398 112.86L39.6565 108.87L38.6795 98.2861H24.9038L26.8264 119.122L54.9368 126.669L55 126.652V112.845Z" fill="#EBEBEB"/>
<path d="M25.989 0H42.6099V6.72126H32.9396V13.4425H42.6099V20.1638H25.989V0Z" fill="black"/>
<path d="M45.934 0H62.5549V5.84457H52.8846V7.01349H62.5549V20.456H45.934V14.3192H55.6043V13.1503H45.934V0Z" fill="black"/>
<path d="M65.8791 0H82.5V5.84457H72.8296V7.01349H82.5V20.456H65.8791V14.3192H75.5494V13.1503H65.8791V0Z" fill="black"/>
<path d="M86.8513 78.3808L89.3287 51.5215H54.9525V64.7919H74.2896L73.0409 78.3808H54.9525V91.6509H71.8508L70.2579 108.861L54.9525 112.856V126.662L83.0853 119.122L83.2917 116.88L86.5165 81.9442L86.8513 78.3808Z" fill="white"/>
</svg>
