<svg width="150" height="60" viewBox="0 0 150 60" fill="none" xmlns="http://www.w3.org/2000/svg">
<path d="M89.639 20.6684C86.3595 20.6684 83.9173 22.1946 83.9173 25.868C83.9173 28.6355 85.5269 30.5571 89.4621 30.5571C92.7978 30.5571 95.0637 28.6938 95.0637 25.753C95.0637 22.4206 93.0363 20.6684 89.639 20.6684V20.6684ZM83.0824 46.6057C82.306 47.5082 81.5326 48.4679 81.5326 49.5993C81.5326 51.858 84.5713 52.5378 88.7455 52.5378C92.2025 52.5378 96.9123 52.3079 96.9123 49.261C96.9123 47.4499 94.6465 47.3383 91.7836 47.1683L83.0824 46.6057V46.6057ZM100.727 20.8389C101.798 22.1385 102.932 23.9474 102.932 26.5461C102.932 32.8176 97.7461 36.4898 90.2367 36.4898C88.3271 36.4898 86.5986 36.2643 85.5269 35.9822L83.5588 38.9757L89.4 39.3145C99.7137 39.9377 105.792 40.2209 105.792 47.7326C105.792 54.2318 99.7728 57.9024 89.4 57.9024C78.6111 57.9024 74.4978 55.3031 74.4978 50.84C74.4978 48.2974 75.6902 46.9439 77.7767 45.0762C75.8091 44.2881 75.1541 42.8763 75.1541 41.3495C75.1541 40.1054 75.8091 38.9763 76.8837 37.9016C77.956 36.8297 79.1478 35.755 80.5787 34.5121C77.6584 33.1558 75.4517 30.2178 75.4517 26.0357C75.4517 19.5393 79.9828 15.0773 89.1011 15.0773C91.6652 15.0773 93.2156 15.3005 94.5867 15.6421H106.212V20.4429L100.727 20.8389V20.8389ZM116.699 10.5714C113.3 10.5714 111.333 8.70527 111.333 5.48344C111.333 2.26606 113.3 0.512695 116.699 0.512695C120.156 0.512695 122.123 2.26606 122.123 5.48344C122.123 8.70527 120.156 10.5714 116.699 10.5714ZM109.008 44.5263V40.0649L112.049 39.6705C112.884 39.5567 113.002 39.3878 113.002 38.5386V21.9269C113.002 21.3071 112.824 20.9094 112.226 20.7417L109.008 19.667L109.663 15.0917H122.003V38.5386C122.003 39.4439 122.061 39.5567 122.958 39.6711L125.998 40.0654V44.5263H109.008V44.5263ZM149.571 42.3359C147.007 43.5216 143.251 44.5952 139.852 44.5952C132.759 44.5952 130.078 41.886 130.078 35.4979V20.6962C130.078 20.3574 130.078 20.1313 129.599 20.1313H125.427V15.1011C130.674 14.5347 132.759 12.0487 133.414 5.88999H139.078V13.9154C139.078 14.3097 139.078 14.4802 139.556 14.4802H147.96V20.1302H139.078V33.6334C139.078 36.9669 139.914 38.2654 143.131 38.2654C144.802 38.2654 146.529 37.8711 147.959 37.3623L149.571 42.3353" fill="#2F2707"/>
<path d="M61.2475 27.5086L33.992 1.67566C33.6188 1.32175 33.1756 1.041 32.6879 0.849456C32.2001 0.657913 31.6773 0.559326 31.1494 0.559326C30.6214 0.559326 30.0986 0.657913 29.6109 0.849456C29.1231 1.041 28.6799 1.32175 28.3067 1.67566L22.6471 7.04074L29.8266 13.8454C30.6705 13.5733 31.5779 13.5308 32.4461 13.7225C33.3142 13.9142 34.1083 14.3325 34.7385 14.9301C35.3721 15.5314 35.8144 16.2895 36.015 17.1178C36.2156 17.9461 36.1664 18.8112 35.8729 19.6142L42.7911 26.1728C44.4651 25.6263 46.3969 25.9801 47.7334 27.2492C48.1778 27.6701 48.5303 28.1699 48.7708 28.72C49.0113 29.2701 49.1351 29.8597 49.1351 30.4552C49.1351 31.0506 49.0113 31.6403 48.7708 32.1904C48.5303 32.7405 48.1778 33.2403 47.7334 33.6612C46.9517 34.4029 45.9229 34.8649 44.8221 34.9685C43.7214 35.0722 42.6169 34.811 41.6964 34.2296C40.776 33.6481 40.0966 32.7823 39.7739 31.7794C39.4512 30.7766 39.5051 29.6987 39.9264 28.7293L33.4741 22.6133L33.4735 38.7086C33.9412 38.9278 34.3684 39.2174 34.7385 39.5661C35.1828 39.9872 35.5353 40.487 35.7758 41.0372C36.0162 41.5874 36.14 42.1771 36.14 42.7726C36.14 43.3682 36.0162 43.9579 35.7758 44.5081C35.5353 45.0582 35.1828 45.5581 34.7385 45.9792C32.8694 47.7509 29.8401 47.7509 27.9739 45.9792C27.4163 45.4511 27.0051 44.8006 26.7767 44.0856C26.5484 43.3705 26.5099 42.6131 26.6649 41.8806C26.8198 41.1481 27.1633 40.4632 27.6648 39.8868C28.1663 39.3105 28.8103 38.8605 29.5395 38.5769V22.3318C28.9529 22.1047 28.4205 21.7681 27.9739 21.3421C26.5582 20.0019 26.2178 18.033 26.9432 16.3852L19.8663 9.67607L1.17837 27.3886C0.804937 27.7425 0.508712 28.1627 0.306611 28.6252C0.104509 29.0877 0.000488281 29.5833 0.000488281 30.0839C0.000488281 30.5845 0.104509 31.0801 0.306611 31.5426C0.508712 32.0051 0.804937 32.4253 1.17837 32.7792L28.4338 58.6127C29.1878 59.3272 30.2103 59.7286 31.2765 59.7286C32.3427 59.7286 33.3652 59.3272 34.1192 58.6127L61.2475 32.8997C62.0014 32.1847 62.4249 31.2151 62.4249 30.2042C62.4249 29.1932 62.0014 28.2236 61.2475 27.5086" fill="#DE4C36"/>
</svg>
