<svg width="60" height="150" viewBox="0 0 60 150" fill="none" xmlns="http://www.w3.org/2000/svg">
<path d="M46.2269 145.428L47.4986 121.463L51.0099 114.683C51.0099 114.683 43.0181 118.381 29.6386 118.381C16.2589 118.381 8.38823 114.752 8.38823 114.752L12.3234 122.147L13.7155 145.428C13.7155 147.924 20.9933 149.947 29.9714 149.947C38.9489 149.947 46.2269 147.924 46.2269 145.428V145.428ZM42.2156 33.5125L44.8848 21.5801L59.666 3.98924L55.7702 0.236328L40.1212 18.9749L37.0221 33.231C34.6896 33.1426 32.356 33.0987 30.0222 33.0993C13.541 33.0993 0.180176 35.2237 0.180176 37.8437C0.180176 40.4639 13.541 42.588 30.0222 42.588C46.5032 42.588 59.8638 40.4639 59.8638 37.8437C59.8638 35.9143 52.6176 34.2537 42.2156 33.5125" fill="#D34A47"/>
<path d="M40.663 40.195C40.663 40.195 40.0849 40.3416 38.3845 40.3498C36.6835 40.3578 35.4758 40.3373 34.9948 39.8418C34.8654 39.7087 34.7947 39.4445 34.7954 39.2656C34.7968 38.9251 35.0105 38.7245 35.2827 38.5989L35.5403 39.0558C35.4283 39.0995 35.3643 39.1512 35.3641 39.2063C35.3631 39.4649 37.1032 39.642 38.4341 39.6229C39.7653 39.6043 41.3737 39.4803 41.3751 39.2254C41.3751 39.1482 41.2535 39.0756 41.0419 39.0184L41.2982 38.5647C41.6432 38.6858 41.9443 38.9198 41.9436 39.3247C41.9403 40.0132 41.1656 40.1179 40.663 40.195" fill="white"/>
<path d="M59.6369 4.02399C60.0086 3.53848 59.4445 2.29661 58.3772 1.25058C57.3094 0.205087 56.1425 -0.249153 55.7702 0.236359C55.3983 0.721872 55.9625 1.96374 57.0303 3.00924C58.0977 4.055 59.2651 4.50977 59.6369 4.02399ZM45.516 86.89C45.1657 83.078 52.8882 77.5571 50.9063 77.3804C46.6398 77.6562 44.5164 83.0353 42.3698 88.669C41.5832 90.7338 38.8915 99.5382 37.1261 98.4543C35.3612 97.3709 39.4143 90.1309 40.5503 85.8312C39.2395 86.9183 34.4324 91.1425 33.1935 87.1865C31.2018 89.0997 26.9458 90.1362 27.4259 85.1107C26.3663 87.2334 23.9882 90.1971 21.1337 88.9656C17.385 87.3487 23.3058 73.8432 24.7781 74.5245C26.2506 75.2056 24.481 78.2822 24.0175 79.4769C22.9982 82.1061 21.8207 85.4114 22.6073 86.088C23.9549 87.2472 27.622 81.7028 27.7036 81.5809C28.3894 80.5561 30.3435 73.8514 31.9183 74.6213C33.4932 75.3911 27.9902 84.2435 30.0477 86.0003C30.4627 86.3549 32.1606 85.7817 33.1935 84.5178C33.8618 83.7002 33.6319 81.8894 35.8596 75.8809C38.0873 69.8727 40.0727 62.3902 41.6005 62.9602C43.1283 63.53 41.869 67.3704 41.3209 68.802C38.749 75.5213 34.3016 86.6221 36.399 85.7817C38.4964 84.9416 39.5886 84.8923 41.6424 82.174C43.6963 79.4557 43.6016 74.9782 44.9705 75.0734C46.3399 75.1688 46.11 76.6044 45.778 77.6976C47.1253 75.9538 52.1646 72.2811 53.3812 75.9185C54.8223 80.2248 46.1714 86.445 48.3283 86.1278C50.4314 85.8185 53.8384 83.378 55.2931 81.159L59.2972 40.4454C59.2972 40.4454 55.268 44.2166 29.6346 44.2166C4.00103 44.2166 0.388733 40.5238 0.388733 40.5238L3.79764 77.6857C5.60707 71.8693 9.90383 60.1046 16.6767 60.4995C19.7575 60.6792 23.8703 67.3887 20.3473 67.616C18.8561 67.712 18.7047 64.267 16.9389 63.7611C15.6646 63.3959 13.8906 64.5675 12.744 65.837C10.4575 68.3679 5.53982 78.3535 6.1896 83.3319C7.01745 89.6788 13.9335 81.1264 15.1037 78.5872C15.9278 76.7986 16.4845 71.4993 18.2869 72.0554C20.0895 72.6114 18.1297 78.0803 16.8231 82.9155C15.3553 88.3449 14.5837 94.0722 12.744 93.4134C10.9041 92.7551 13.9011 85.7459 13.7926 84.5178C12.0633 86.3223 8.8775 90.8907 4.80171 88.6296L6.9188 111.707C6.9188 111.707 12.5456 116.735 29.4957 116.735C46.4458 116.735 52.2809 111.785 52.2809 111.785L54.9097 85.0563C52.7589 87.4251 45.9518 91.6314 45.516 86.89" fill="#D34A47"/>
</svg>
