<svg width="150" height="150" viewBox="0 0 150 150" fill="none" xmlns="http://www.w3.org/2000/svg">
<g clip-path="url(#clip0)">
<path d="M31.7525 0H38.5134V6.67969H44.6979V0H51.4591V20.2277H44.6982V13.4543H38.5137V20.2277H31.7528L31.7525 0Z" fill="black"/>
<path d="M60.3498 6.70781H54.3979V0H73.0658V6.70781H67.1112V20.2277H60.3501L60.3498 6.70781Z" fill="black"/>
<path d="M76.0286 0H83.0783L87.4149 7.10742L91.747 0H98.7993V20.2277H92.0663V10.2018L87.4149 17.3938H87.2985L82.6439 10.2018V20.2277H76.0286V0V0Z" fill="black"/>
<path d="M102.164 0H108.927V13.5416H118.435V20.2277H102.164V0Z" fill="black"/>
<path d="M31.3843 137.908L21.6832 29.0908H128.233L118.52 137.916L74.9323 150L31.3843 137.908Z" fill="#E34E26"/>
<path d="M74.9581 37.9854V140.756L110.204 130.987L118.509 37.9854H74.9581Z" fill="#EF662A"/>
<path d="M41.5315 51.333L45.1292 91.6927H91.3875L89.835 109.004L74.9411 113.03L60.0753 109.009L59.0812 97.8942H45.6846L47.6004 119.321L74.9376 126.914L102.31 119.321L105.98 78.3482H57.3357L56.1146 64.6807H107.148H107.189L108.385 51.333H41.5315Z" fill="white"/>
<path d="M74.9581 51.333H41.5315L45.1292 91.6927H74.9581V78.3482H57.3357L56.1146 64.6807H74.9581V51.333Z" fill="#EBEBEB"/>
<path d="M74.9581 113.025L74.9411 113.031L60.0753 109.009L59.0812 97.8943H45.6847L47.6004 119.321L74.9376 126.914L74.9581 126.908V113.025Z" fill="#EBEBEB"/>
</g>
<defs>
<clipPath id="clip0">
<rect width="150" height="150" fill="white"/>
</clipPath>
</defs>
</svg>
