<svg width="110" height="150" viewBox="0 0 110 150" fill="none" xmlns="http://www.w3.org/2000/svg">
<path d="M110 29.394H0L10.3125 137.724L54.9938 150L99.6751 137.724L110 29.394Z" fill="#E6A329"/>
<path d="M54.9938 38.22V140.82L91.1959 130.884L100.003 38.22H54.9938Z" fill="#F1BF22"/>
<path d="M83.7945 51.51H28.1318L24.2545 92.07L24.335 91.818H71.6239L70.0817 108.978L54.9938 113.184L39.683 108.912L38.7663 98.526H24.8677L26.8497 119.28L54.9938 127.02L83.1504 119.28L87.0276 78.546H36.8401L37.4843 64.974H72.3052L72.8255 72.75H86.848L83.7945 51.51Z" fill="white"/>
<path d="M55.0062 51.51H28.1318L24.2545 92.07L24.335 91.818H55.0062V78.588H38.7973L39.4415 65.016H55.0062V51.51ZM38.7973 98.526H24.8677L26.8497 119.268L54.9939 126.996V113.196L39.683 108.912L38.7973 98.526Z" fill="#EBEBEB"/>
<path d="M44.2973 13.416H34.5051V20.226H51.3024V0H44.2973V13.416ZM75.4887 0.108H58.4189V7.188C60.6982 9.396 61.8874 10.458 65.2444 13.656H58.4189V20.112H75.4887V13.668L68.6633 7.2H75.4887V0.108Z" fill="#231F20"/>
</svg>
