<svg width="200" height="60" viewBox="0 0 200 60" fill="none" xmlns="http://www.w3.org/2000/svg">
<g clip-path="url(#clip0)">
<path fill-rule="evenodd" clip-rule="evenodd" d="M191.296 4.47192L199.664 4.5328C199.664 4.5328 184.107 32.4452 182.837 34.7201C182.424 35.4568 181.797 36.2512 181.48 37.236C180.676 39.7118 179.851 45.1422 179.851 45.1422L172.195 45.1925C172.195 45.1925 173.387 39.5322 173.338 36.5171C173.294 33.883 172.279 31.2525 171.709 28.6108C171.134 25.9372 170.352 20.7045 170.352 20.7045H178.223L179.308 26.4546L191.296 4.47192Z" fill="#1A1918"/>
<path fill-rule="evenodd" clip-rule="evenodd" d="M175.452 10.3588C176.996 11.5916 177.944 18.3909 177.944 18.3909C177.944 18.3909 169.864 18.5486 165.467 18.5486H161.667L157.054 45.1425H149.997C149.997 45.1425 154.388 16.2418 155.425 11.0021C155.762 9.30606 157.727 9.59676 161.046 9.59676H166.346C169.769 9.59676 173.769 9.0184 175.452 10.3588Z" fill="#1A1918"/>
<path fill-rule="evenodd" clip-rule="evenodd" d="M142.602 23.3103C142.602 23.3103 142.821 21.6032 141.855 19.6266C141.03 17.9412 140.268 17.5496 138.097 17.4598C131.965 17.2046 132.085 23.2205 132.085 23.2205L142.602 23.3103ZM149.251 16.4213C150.149 20.7123 148.437 30.796 148.437 30.796C148.437 30.796 139.494 30.5982 134.595 30.796C133.072 30.8574 131.249 30.5769 130.796 31.5149C130.158 32.8299 131.029 34.8537 131.767 35.7085C132.617 36.6933 134.272 36.8049 134.867 36.9053C138.843 37.574 147.164 37.0778 147.164 37.0778L145.723 45.53C145.723 45.53 133.963 46.3103 128.082 44.4519C126.92 44.0856 125.832 43.3454 125.096 42.2957C124.895 42.0086 124.721 41.6169 124.531 41.279C124.38 41.0091 123.938 40.1218 123.739 39.4207C122.396 34.6807 123.897 25.5994 125.367 20.7336C125.538 20.1694 125.753 19.4546 125.979 18.8468C126.261 18.0889 126.499 17.2335 126.724 16.7805C126.876 16.4679 127.064 16.2665 127.221 15.9718C127.403 15.6232 127.615 15.2854 127.81 14.984C128.353 14.1499 128.969 13.5604 129.71 12.8278C132.161 10.3982 136.595 8.51145 141.923 9.23389C143.929 9.50684 146.958 10.4556 148.437 13.187C148.833 13.9166 149.028 15.3645 149.251 16.4213Z" fill="#1A1918"/>
<path fill-rule="evenodd" clip-rule="evenodd" d="M116.886 9.56428L123.728 9.5105C123.728 9.5105 119.915 33.4627 117.972 45.1425H110.101C104.6 45.1425 99.7011 46.0445 97.6168 40.8297C95.595 35.7665 97.5245 27.4396 98.431 21.7829C99.0716 17.7795 100.421 9.59675 100.421 9.59675L107.51 9.5105C107.51 9.5105 105.506 22.2501 104.673 28.6111C104.375 30.8895 103.759 33.035 104.402 34.7204C105.013 36.3235 105.867 36.4382 108.473 36.5173C109.298 36.5427 112.001 36.5173 112.001 36.5173L116.886 9.56428Z" fill="#1A1918"/>
<path fill-rule="evenodd" clip-rule="evenodd" d="M84.861 26.814C85.5774 23.4432 86.6223 19.7884 86.4893 16.7515C86.3456 13.5031 84.2886 10.5453 82.9614 9.92384C78.9636 8.05483 75.2211 10.6676 73.7338 12.7984C71.8092 15.5588 71.1579 18.7824 70.4767 23.2205C69.9694 26.5156 69.5541 29.9944 70.4767 32.5641C72.1104 37.1067 77.2046 36.1149 82.6897 36.158C83.5039 33.2687 84.1771 30.0233 84.861 26.814ZM94.3602 13.5173C95.1418 21.0425 92.143 29.3481 90.0774 36.571C92.1836 36.8226 94.0292 36.5319 94.1621 36.7399C94.3004 37.0098 92.7506 45.3615 92.2104 45.3828C90.5388 45.4407 84.9997 45.5015 82.6897 45.5015C75.1529 45.5015 68.102 46.1519 64.5062 41.1892C63.046 39.1731 62.0364 35.7156 61.792 33.283C61.3847 29.2218 61.8951 24.7511 62.6062 21.0644C63.2495 17.7363 64.0744 14.5954 65.3203 11.7203C68.4874 4.40001 73.997 -1.03353 83.2326 0.220599C85.0238 0.465134 87.5966 1.50364 89.2035 2.73595C89.3146 2.82271 89.7031 3.23213 89.7924 3.30417C91.9637 5.13361 93.9422 9.49971 94.3602 13.5173Z" fill="#1A1918"/>
<path fill-rule="evenodd" clip-rule="evenodd" d="M61.0129 9.60733C60.557 12.3566 60.1011 15.4726 59.6206 18.1894H52.0214C52.6103 15.1778 53.0608 12.1841 53.6497 9.56421C56.0815 9.56421 58.3424 9.60733 61.0129 9.60733Z" fill="#1A1918"/>
<path fill-rule="evenodd" clip-rule="evenodd" d="M51.7501 20.7046H59.0777C58.1199 27.7271 56.2229 39.0543 54.7356 46.9388C53.8045 51.8731 53.1831 55.4741 50.6643 58.0793C50.439 58.3132 50.3091 58.2021 50.1218 58.439C49.6574 59.0249 47.5107 59.7043 46.3222 59.8762C44.3896 60.1532 42.2049 59.9123 39.8302 59.8478C40.4517 56.8399 41.1547 53.2282 41.7084 50.5327C47.4973 51.4601 47.644 44.2149 48.7647 37.236C49.4133 33.2037 51.3785 22.322 51.7501 20.7046Z" fill="#1A1918"/>
<path fill-rule="evenodd" clip-rule="evenodd" d="M34.6517 39.033L34.4946 39.5718C31.8184 46.4716 27.077 50.7052 20.3138 50.8919C17.1521 50.9782 14.1395 49.9042 12.1717 48.7358C7.92452 46.2093 4.35249 41.5235 2.40154 36.5172C-0.396932 29.3405 -0.90153 19.3572 4.91724 11.9004C5.0069 11.9004 4.2115 13.5173 4.30115 13.5173L4.141 14.2072C-0.0521042 31.59 12.8663 46.4863 25.4241 44.7826C28.4421 44.3732 32.2908 42.1846 34.6517 39.033Z" fill="#21609B"/>
<path fill-rule="evenodd" clip-rule="evenodd" d="M27.0525 31.8453C30.2119 31.8742 33.5119 29.919 35.466 27.1738C33.7564 32.9203 28.8062 36.6142 22.1675 35.4392C16.6093 34.4545 11.3142 27.048 10.7686 19.6267C10.3698 14.2256 11.7916 11.0021 14.1342 7.09204C13.32 9.1371 13.0158 10.7144 12.9399 11.7204C12.0499 23.4038 19.9882 31.7844 27.0525 31.8453Z" fill="#21609B"/>
<path fill-rule="evenodd" clip-rule="evenodd" d="M35.1487 17.334C34.6575 18.8255 31.8295 21.6428 30.5808 21.9948C25.636 23.3895 22.469 20.2846 20.8103 16.7516C20.5636 16.2234 20.1077 14.7826 20.0261 14.4158C19.3828 11.5194 19.6785 7.13863 21.5977 4.87085C21.0195 7.02701 20.9353 9.53171 21.2395 11.1597C21.4238 12.1445 21.9854 13.8628 22.5475 14.9439C23.5705 16.9134 24.2192 17.3918 25.533 18.4374C26.1245 18.9082 26.7594 19.2857 27.0337 19.3897C28.2793 19.8747 30.9092 21.1542 35.1487 17.334Z" fill="#21609B"/>
</g>
<defs>
<clipPath id="clip0">
<rect width="200" height="60" fill="white"/>
</clipPath>
</defs>
</svg>
