<svg width="150" height="150" viewBox="0 0 150 150" fill="none" xmlns="http://www.w3.org/2000/svg">
<path d="M122.391 82.3689C118.269 82.3743 114.202 83.3168 110.498 85.1251C109.339 83.2006 108.443 81.1289 107.836 78.9657C107.487 77.2701 107.406 75.5301 107.597 73.8095C107.998 71.9161 108.517 70.0499 109.153 68.222C109.13 67.9829 108.867 66.8532 106.228 66.8157C103.589 66.7782 101.316 67.3173 101.072 68.0157C100.614 69.2914 100.245 70.5978 99.9704 71.9251C97.7862 77.3134 95.0977 82.4833 91.9407 87.3657C90.1719 84.4661 89.4444 81.0501 89.8782 77.6814C90.2788 75.788 90.7986 73.9217 91.4344 72.0938C91.411 71.8548 91.1485 70.7251 88.5094 70.6876C85.8704 70.6501 83.5969 71.1892 83.3532 71.8876C83.1094 72.586 82.8 74.2313 82.2516 75.797C81.7032 77.3626 75.3 91.6689 73.6219 95.3579C72.7594 97.2329 72.0141 98.761 71.4891 99.7923C71.4642 99.8593 71.4328 99.9236 71.3954 99.9845C70.9266 100.87 70.6782 101.353 70.6782 101.353V101.377C70.3172 102.024 69.9329 102.624 69.7407 102.624C69.4055 101.284 69.4216 99.8812 69.7875 98.5501C70.725 93.586 73.0219 85.8704 72.9985 85.6032C72.9985 85.4579 73.4297 84.1173 71.5125 83.4235C71.0679 83.2119 70.5686 83.1434 70.0834 83.2273C69.5981 83.3113 69.1509 83.5436 68.8032 83.8923C68.6344 83.8923 68.5172 84.3001 68.5172 84.3001C68.5172 84.3001 70.6032 75.6235 64.5375 75.6235C62.1755 76.0987 59.9323 77.0414 57.9399 78.3962C55.9475 79.751 54.2462 81.4906 52.936 83.5126C51.3047 84.3985 47.8313 86.2923 44.1141 88.3313C42.7079 89.1235 41.236 89.9157 39.8719 90.6751C39.7782 90.5813 39.6797 90.4595 39.586 90.3657C32.2032 82.5001 18.6329 76.9501 19.2188 66.4267C19.4344 62.5923 20.7516 52.5235 45.2766 40.2938C65.461 30.347 81.525 33.1032 84.3047 39.2157C88.2844 47.9438 75.6985 64.1485 54.8438 66.497C52.5366 66.9651 50.1538 66.9086 47.8714 66.3317C45.589 65.7548 43.4655 64.6723 41.6579 63.1642C40.5563 61.9642 40.3875 61.8938 39.9797 62.1329C39.3094 62.4938 39.7407 63.572 39.9797 64.1954C40.7753 65.6352 41.8514 66.9009 43.1444 67.9177C44.4374 68.9346 45.9211 69.682 47.5079 70.1157C55.7121 71.8886 64.2659 71.041 71.9625 67.6923C84.6188 62.8032 94.4625 49.2095 91.575 37.8235C88.6735 26.2688 69.4969 22.4579 51.3469 28.9173C39.9786 32.7426 29.4743 38.7681 20.4329 46.6501C10.4344 56.0017 8.85474 64.1251 9.50161 67.5329C11.8454 79.6173 28.4907 87.4782 35.1516 93.3142C34.8141 93.5063 34.5047 93.6751 34.2422 93.8157C30.9094 95.4704 18.2063 102.113 15.0235 109.134C11.4282 117.103 15.6 122.799 18.3563 123.567C22.5095 124.561 26.8694 124.234 30.8274 122.631C34.7855 121.027 38.1441 118.228 40.4344 114.624C42.3847 111.634 43.5835 108.217 43.9288 104.664C44.274 101.112 43.7554 97.528 42.4172 94.2189C42.3946 94.1654 42.3629 94.1162 42.3235 94.0735L44.9344 92.5407C46.636 91.5329 48.3141 90.6001 49.7532 89.8313C48.7773 92.646 48.2045 95.5844 48.0516 98.5595C47.7203 103.119 49.1158 107.637 51.961 111.216C52.3939 111.588 52.8965 111.871 53.4397 112.048C53.9828 112.225 54.5556 112.293 55.125 112.247C57.9375 112.247 59.2266 109.903 60.6375 107.119C62.3625 103.716 63.9188 99.7595 63.9188 99.7595C63.9188 99.7595 61.9782 110.452 67.2516 110.452C69.1688 110.452 71.1094 107.958 71.9766 106.702V106.725C71.9766 106.725 72.0235 106.655 72.1219 106.486L72.4313 105.984V105.938C73.2 104.597 74.925 101.55 77.4891 96.4923C80.7985 89.972 83.986 81.8204 83.986 81.8204C84.2934 83.6119 84.7178 85.3813 85.2563 87.1173C86.0283 89.2217 86.9414 91.2716 87.9891 93.2532C87.2204 94.3313 86.7422 94.9314 86.7422 94.9314L86.7657 94.9548C86.1422 95.7704 85.4719 96.6564 84.7266 97.5189C82.5091 99.9568 80.4517 102.536 78.5672 105.239C78.2872 105.693 78.191 106.237 78.2981 106.76C78.4053 107.282 78.7077 107.744 79.1438 108.052C80.1306 108.565 81.2553 108.751 82.3547 108.581C84.0115 108.488 85.6406 108.115 87.1735 107.48C88.6548 106.958 90.0523 106.224 91.3219 105.3C92.6308 104.393 93.6844 103.165 94.3814 101.733C95.0783 100.302 95.3952 98.7147 95.3016 97.1251C95.1542 95.1228 94.6427 93.1641 93.7922 91.3454C94.0313 91.0079 94.261 90.6751 94.486 90.3376C97.151 86.3597 99.553 82.2118 101.677 77.9204C101.984 79.7119 102.408 81.4813 102.947 83.2173C103.584 85.0358 104.368 86.7995 105.291 88.4907C102.225 90.8495 99.8099 93.95 98.2735 97.5001C96.7641 101.864 97.936 103.828 100.148 104.283C101.359 104.366 102.57 104.118 103.65 103.566C105.239 103.044 106.735 102.275 108.084 101.288C109.507 100.448 110.699 99.2675 111.553 97.8527C112.406 96.438 112.894 94.8332 112.973 93.1829C112.867 91.5356 112.495 89.9162 111.872 88.3876C115.918 86.807 120.304 86.3031 124.603 86.9251C136.013 88.2657 138.267 95.386 137.836 98.386C137.634 99.4496 137.206 100.457 136.582 101.342C135.958 102.227 135.151 102.967 134.217 103.514C133.425 104.016 133.163 104.184 133.233 104.545C133.327 105.075 133.702 105.047 134.381 104.953C136.101 104.419 137.618 103.376 138.733 101.961C139.847 100.547 140.507 98.8282 140.625 97.0314C140.986 90.0001 134.273 82.2892 122.405 82.3595L122.391 82.3689ZM34.3594 112.031C30.5719 116.156 25.2985 117.713 23.0204 116.395C20.5735 114.989 21.5344 108.895 26.1844 104.527C28.9428 102.044 31.9241 99.8202 35.0907 97.8845C35.6438 97.547 36.4594 97.0689 37.4344 96.4782L37.6969 96.3329L38.2735 95.972C39.1042 98.7554 39.1796 101.71 38.4917 104.532C37.8039 107.354 36.3777 109.942 34.3594 112.031V112.031ZM61.9266 93.2813C60.6094 96.4923 57.8532 104.719 56.175 104.259C54.736 103.875 53.8313 97.6407 55.8891 91.4814C56.9281 88.5163 58.4415 85.7395 60.3704 83.2595C62.4329 80.9579 64.711 80.1892 65.2594 81.1267C64.7591 85.3214 63.6358 89.4181 61.9266 93.2813V93.2813ZM84.675 104.166C84.1219 104.452 83.5969 104.634 83.3579 104.503C83.1891 104.409 83.5969 104.034 83.5969 104.034C83.5969 104.034 86.4516 100.964 87.5766 99.5767C88.2235 98.761 88.9829 97.8048 89.8079 96.722V97.0314C89.8079 100.697 86.2594 103.167 84.6797 104.175L84.675 104.166ZM102.225 100.163C101.817 99.8767 101.888 98.9157 103.256 95.9204C104.208 93.9967 105.538 92.2845 107.166 90.886C107.415 91.5956 107.545 92.3417 107.55 93.0939C107.569 94.6948 107.057 96.2569 106.094 97.5364C105.132 98.8159 103.773 99.741 102.23 100.167L102.225 100.163Z" fill="#CD6799"/>
</svg>
