<?xml version="1.0" encoding="UTF-8" standalone="no"?>
<!-- Generator: Adobe Illustrator 19.0.1, SVG Export Plug-In . SVG Version: 6.00 Build 0)  -->

<svg
   xmlns:dc="http://purl.org/dc/elements/1.1/"
   xmlns:cc="http://creativecommons.org/ns#"
   xmlns:rdf="http://www.w3.org/1999/02/22-rdf-syntax-ns#"
   xmlns:svg="http://www.w3.org/2000/svg"
   xmlns="http://www.w3.org/2000/svg"
   xmlns:sodipodi="http://sodipodi.sourceforge.net/DTD/sodipodi-0.dtd"
   xmlns:inkscape="http://www.inkscape.org/namespaces/inkscape"
   version="1.1"
   id="Layer_1"
   x="0px"
   y="0px"
   viewBox="0 0 500 500"
   style="enable-background:new 0 0 500 500;"
   xml:space="preserve"
   sodipodi:docname="social media icons color.svg"
   inkscape:version="0.92.4 (5da689c313, 2019-01-14)"><metadata
   id="metadata1383"><rdf:RDF><cc:Work
       rdf:about=""><dc:format>image/svg+xml</dc:format><dc:type
         rdf:resource="http://purl.org/dc/dcmitype/StillImage" /><dc:title></dc:title></cc:Work></rdf:RDF></metadata><defs
   id="defs1381" /><sodipodi:namedview
   pagecolor="#ffffff"
   bordercolor="#666666"
   borderopacity="1"
   objecttolerance="10"
   gridtolerance="10"
   guidetolerance="10"
   inkscape:pageopacity="0"
   inkscape:pageshadow="2"
   inkscape:window-width="1280"
   inkscape:window-height="961"
   id="namedview1379"
   showgrid="false"
   inkscape:zoom="1.524"
   inkscape:cx="250"
   inkscape:cy="250"
   inkscape:window-x="-4"
   inkscape:window-y="-4"
   inkscape:window-maximized="1"
   inkscape:current-layer="Layer_1" />
<style
   type="text/css"
   id="style1100">
	.st0{fill:#FFD39F;}
	.st1{fill:#F94877;}
	.st2{fill:#00ACED;}
	.st3{fill:#2993C2;}
	.st4{fill:#A6B1B7;}
	.st5{fill:#FF4500;}
	.st6{fill:#FFFFFF;}
	.st7{fill:#FF8300;}
	.st8{fill:#CB2027;}
	.st9{fill:#DD4B39;}
	.st10{fill:#35465D;}
	.st11{fill:#12AF0A;}
	.st12{fill:#21759B;}
	.st13{fill:#EA4C89;}
	.st14{fill:#3B5998;}
	.st15{fill:#F3F3F3;}
	.st16{fill:#FB8F3D;}
	.st17{fill:#FF0084;}
	.st18{fill:#0063DC;}
	.st19{fill:#0084FF;}
	.st20{fill:#007BB5;}
	.st21{fill:#2CA5E0;}
	.st22{fill:#1769FF;}
	.st23{fill:#7C529E;}
	.st24{fill:#A4C638;}
	.st25{fill:#FF0000;}
	.st26{fill:#FFFB00;}
	.st27{fill:#2A2A2A;}
	.st28{fill:#BC2A8D;}
</style>
<rect
   class="st0"
   width="500"
   height="500"
   id="rect1102"
   style="fill:#ffffff" />
<g
   id="g1376">
	<g
   id="g1363">
		<g
   id="XMLID_1_">
			<g
   id="g1358">
				<path
   class="st1"
   d="M487.5,431.7c2,4.8,3,9.8,3,15.1c0,5.3-1,10.3-3,15.1c-2,4.8-4.9,9.1-8.6,12.9c-3.8,3.8-8,6.6-12.9,8.6      c-4.8,2-9.8,3-15.1,3c-5.3,0-10.3-1-15.1-3c-4.8-2-9.1-4.9-12.9-8.6c-3.8-3.8-6.6-8.1-8.6-12.9c-2-4.8-3-9.9-3-15.1      c0-5.3,1-10.3,3-15.1c2-4.8,4.9-9.1,8.6-12.9c3.8-3.8,8.1-6.6,12.9-8.6c4.8-2,9.9-3,15.1-3c5.3,0,10.3,1,15.1,3      c4.8,2,9.1,4.9,12.9,8.6C482.6,422.6,485.5,426.9,487.5,431.7z M465.1,431.5c0.4-1.7,0.3-3-0.2-3.8s-1.5-1.3-3.1-1.3      c-0.2,0-1.2,0-3.1,0c-1.9,0-4.1,0-6.7,0c-2.6,0-5,0-7.3,0c-2.3,0-3.8,0-4.5,0c-1.5,0-2.5,0.4-3,1.3c-0.5,0.9-0.8,1.6-0.8,2.4      v34.1c0,0.9,0.2,1.4,0.5,1.8c0.3,0.3,0.6,0.5,0.9,0.6c0.3,0.1,0.7,0.1,1.1,0.1c0.5,0,1-0.3,1.4-0.7c2.1-2.4,3.8-4.4,5.1-5.9      c1.3-1.6,2.5-2.9,3.6-4.1c1.1-1.2,1.6-1.9,1.7-2c0.1-0.1,0.1-0.2,0.2-0.2c0,0,0.1,0,0.2,0c0.1,0,0.5,0,1.3,0c0.7,0,1.6,0,2.6,0      s1.9,0,2.5,0c1.4,0,2.3-0.4,2.8-1c0.5-0.7,0.7-1.4,0.8-2c0.1-0.5,0.5-2,1-4.4s1.1-5.1,1.7-8      C464.3,435.3,464.8,433.1,465.1,431.5z"
   id="path1104" />
				<path
   class="st2"
   d="M487.4,38.1c2,4.8,3,9.8,3,15.1c0,5.3-1,10.3-3,15.1c-2,4.8-4.9,9.1-8.6,12.9c-3.8,3.8-8,6.6-12.8,8.6      c-4.8,2-9.9,3-15.1,3c-5.3,0-10.3-1-15.1-3c-4.8-2-9.1-4.9-12.9-8.6c-3.8-3.8-6.6-8.1-8.6-12.9c-2-4.8-3-9.8-3-15.1      c0-5.3,1-10.3,3-15.1c2-4.8,4.9-9.1,8.6-12.9c3.8-3.8,8.1-6.6,12.9-8.6c4.8-2,9.9-3,15.1-3c5.3,0,10.3,1,15.1,3      c4.8,2,9.1,4.9,12.8,8.6C482.6,29,485.4,33.3,487.4,38.1z M471.7,40.2L471.7,40.2c-2.2,0.9-3.8,1.4-4.9,1.4v-0.1      c0.4-0.2,1-0.7,1.8-1.4c0.9-1.1,1.5-2.2,1.8-3.3c-1.1,0.7-2.3,1.2-3.4,1.6c-1.1,0.3-1.8,0.5-2,0.5c-1.9-1.8-4-2.6-6.3-2.6      c-2.3,0-4.3,0.8-6,2.4c-1.7,1.7-2.6,3.7-2.6,6.1c0,0.6,0.1,1.2,0.2,2c-0.7,0-1.9-0.1-3.8-0.4c-3.1-0.8-5.9-1.9-8.2-3.4      c-1.8-1.1-3.8-2.9-5.7-5.1c-0.8,1.4-1.1,2.8-1.1,4.1c0,2.1,0.7,4,2,5.7c0.7,0.8,1.2,1.3,1.7,1.5v0.1c-1.1,0-2.4-0.4-3.8-1      c0,2.4,0.9,4.5,2.6,6.2c1.1,1,2.1,1.6,3,1.9c0.7,0.2,1.1,0.3,1.2,0.3c0,0.1-0.3,0.2-1,0.3h-1h-0.3c-0.4,0-0.9,0-1.6-0.1      c0.7,2,1.9,3.5,3.6,4.6c1.5,0.9,3,1.4,4.5,1.4c-0.9,0.7-1.7,1.2-2.4,1.6c-2.6,1.4-5.3,2.1-7.9,2.1c-0.9,0-1.7,0-2.3-0.1      c4,2.6,8.4,3.8,13.2,3.8c5.9,0,11.2-1.9,15.8-5.8c3.3-3,5.7-6.5,7.1-10.5c1-2.8,1.4-5.3,1.4-7.8v-1.5c0.5-0.3,1.3-1,2.4-2      C470.6,41.6,471.3,40.8,471.7,40.2z"
   id="path1106" />
				<path
   class="st3"
   d="M487.4,136.5c2,4.8,3,9.8,3,15.1c0,5.3-1,10.3-3,15.1c-2,4.8-4.9,9.1-8.6,12.9c-3.8,3.8-8,6.6-12.8,8.6      c-4.8,2-9.9,3-15.1,3c-5.3,0-10.3-1-15.1-3c-4.8-2-9.1-4.9-12.9-8.6c-3.8-3.8-6.6-8.1-8.6-12.9c-2-4.8-3-9.8-3-15.1      c0-5.3,1-10.3,3-15.1c2-4.8,4.9-9.1,8.6-12.9c3.8-3.8,8.1-6.6,12.9-8.6c4.8-2,9.9-3,15.1-3c5.3,0,10.3,1,15.1,3      c4.8,2,9.1,4.9,12.8,8.6C482.6,127.4,485.4,131.7,487.4,136.5z M472.5,151.2c0-3-0.6-5.8-1.7-8.4c-1.1-2.6-2.7-4.9-4.7-6.9      c-2-2-4.3-3.6-6.9-4.7c-2.6-1.1-5.4-1.7-8.4-1.7c-3,0-5.8,0.6-8.5,1.7c-2.6,1.1-4.9,2.7-6.9,4.7c-2,2-3.6,4.3-4.7,6.9      c-1.1,2.6-1.7,5.4-1.7,8.4c0,3,0.6,5.8,1.7,8.4c1.1,2.6,2.7,4.9,4.7,6.9c2,2,4.3,3.6,6.9,4.7c2.6,1.1,5.4,1.7,8.5,1.7      c3,0,5.8-0.6,8.4-1.7c2.6-1.1,4.9-2.7,6.9-4.7c2-2,3.6-4.3,4.7-6.9C471.9,157,472.5,154.2,472.5,151.2z"
   id="path1108" />
				<path
   class="st4"
   d="M487.4,234.9c2,4.8,3,9.8,3,15.1s-1,10.3-3,15.1c-2,4.8-4.9,9.1-8.6,12.9c-3.8,3.8-8,6.6-12.8,8.6      c-4.8,2-9.9,3-15.1,3c-5.3,0-10.3-1-15.1-3c-4.8-2-9.1-4.9-12.9-8.6c-3.8-3.8-6.6-8-8.6-12.9c-2-4.8-3-9.8-3-15.1s1-10.3,3-15.1      c2-4.8,4.9-9.1,8.6-12.9c3.8-3.8,8.1-6.6,12.9-8.6c4.8-2,9.9-3,15.1-3c5.3,0,10.3,1,15.1,3c4.8,2,9.1,4.9,12.8,8.6      C482.6,225.8,485.4,230.1,487.4,234.9z M468,261c0.5-1.1,0.7-1.7,0.7-1.9c-1.1-0.5-2.1-1.1-2.9-1.8c-2-1.7-3-3.9-3-6.4      c0-2.7,1.1-5,3.4-7c0.7-0.6,1.2-0.8,1.3-0.8c-0.6-0.9-1.3-1.6-2.1-2.1c-0.8-0.5-1.6-0.9-2.3-1.2c-0.8-0.3-1.5-0.5-2.1-0.6      c-0.7-0.1-1.1-0.2-1.4-0.2s-0.5,0-0.8,0c-1.2,0-2.6,0.3-4.1,0.8c-1.9,0.7-3.1,1-3.6,1c-0.5,0-1.3-0.2-2.4-0.6      c-2.1-0.8-3.7-1.1-4.9-1.1c-1.9,0-3.6,0.4-5.2,1.4c-1.6,0.9-2.9,2.2-3.9,3.8c-1.3,2-1.9,4.4-1.9,7.1c0,2.3,0.5,4.8,1.4,7.4      c0.8,2.2,1.9,4.3,3.3,6.3c1.2,1.5,2.2,2.7,3.1,3.5c1.2,1.1,2.4,1.6,3.5,1.6h0.3c0.7,0,1.3-0.1,1.8-0.3c0.5-0.2,1-0.4,1.6-0.6      c0.5-0.2,1.1-0.4,1.7-0.5c0.6-0.2,1.4-0.3,2.2-0.3c1.2,0,2.4,0.3,3.7,0.8s2.5,0.8,3.5,0.8c1.3,0,2.6-0.6,3.9-1.6      c0.9-0.8,1.9-1.9,3-3.4C466.7,263.7,467.5,262.4,468,261z M459.5,229.9l-0.1-0.8c-2.4,0.1-4.5,1.1-6.4,3      c-1.6,1.7-2.4,3.5-2.4,5.4c0,0.3,0,0.7,0.1,1h0.2c1.1,0,2.2-0.3,3.4-0.8c1.1-0.6,2.1-1.3,2.9-2.1      C458.8,233.8,459.5,231.9,459.5,229.9z"
   id="path1110" />
				<path
   class="st5"
   d="M487.4,333.3c2,4.8,3,9.9,3,15.1c0,5.3-1,10.3-3,15.1c-2,4.8-4.9,9.1-8.6,12.9c-3.8,3.8-8,6.6-12.8,8.6      c-4.8,2-9.9,3-15.1,3c-5.3,0-10.3-1-15.1-3c-4.8-2-9.1-4.9-12.9-8.6c-3.8-3.8-6.6-8.1-8.6-12.9c-2-4.8-3-9.9-3-15.1      c0-5.3,1-10.3,3-15.1c2-4.8,4.9-9.1,8.6-12.9c3.8-3.8,8.1-6.6,12.9-8.6c4.8-2,9.9-3,15.1-3c5.3,0,10.3,1,15.1,3      c4.8,2,9.1,4.9,12.8,8.6C482.6,324.2,485.4,328.5,487.4,333.3z M470.8,348.7c0-0.6-0.1-1.2-0.4-1.8c-0.6-2.1-1.9-3.2-3.7-3.2      c-0.5,0-1,0.1-1.5,0.2c-0.4,0.1-1,0.5-1.9,1.1c-2.5-2-6.3-3.3-11.5-3.8c1.2-5.6,1.9-8.6,2-9.1l5.2,1.1l1.1,0.2      c0.3,2,1.3,3.1,3,3.1c2.2,0,3.2-0.9,3.2-2.8l0-0.9c-0.4-1.8-1.3-2.7-2.9-2.7l-0.8,0.1c-0.4,0-0.8,0.3-1.3,0.8      c-0.5,0.5-0.9,0.8-1.1,0.8c-0.1,0-0.4-0.1-0.9-0.1c-0.6-0.1-1.6-0.3-2.9-0.6c-2.2-0.5-3.5-0.7-3.7-0.7c-0.3,0.2-0.6,1-1,2.5      l-1.7,8.5c-3.2,0.1-6.3,0.8-9.3,2.3l-2.5,1.3c0-0.1-0.2-0.2-0.7-0.6c-0.8-0.5-1.6-0.7-2.4-0.7c-1.1,0-2.1,0.5-3,1.5      c-0.9,1-1.4,2-1.4,3.1c0,0.7,0.2,1.4,0.7,2.2c0,0,0.7,0.6,2,1.9l0,1.1c0,3.7,2,6.8,5.9,9.2c3.4,2.1,7.1,3.2,11.1,3.2      c2.4,0,4.9-0.3,7.4-1c7-2.1,10.5-6,10.5-11.9v-0.6C469.9,351.4,470.8,350.3,470.8,348.7z"
   id="path1112" />
				<path
   class="st6"
   d="M471.7,40.2L471.7,40.2c-0.4,0.7-1.1,1.5-1.9,2.4c-1.1,1.1-1.9,1.8-2.4,2v1.5c0,2.4-0.5,5-1.4,7.8      c-1.4,4-3.8,7.5-7.1,10.5c-4.6,3.8-9.8,5.8-15.8,5.8c-4.8,0-9.2-1.3-13.2-3.8c0.6,0.1,1.3,0.1,2.3,0.1c2.6,0,5.3-0.7,7.9-2.1      c0.7-0.4,1.6-0.9,2.4-1.6c-1.5,0-3-0.5-4.5-1.4c-1.7-1.1-2.9-2.6-3.6-4.6c0.6,0.1,1.1,0.1,1.6,0.1h0.3h1c0.6-0.1,1-0.2,1-0.3      c-0.1,0-0.5-0.1-1.2-0.3c-0.9-0.3-1.9-0.9-3-1.9c-1.7-1.8-2.6-3.8-2.6-6.2c1.4,0.7,2.6,1,3.8,1v-0.1c-0.4-0.2-1-0.8-1.7-1.5      c-1.3-1.7-2-3.6-2-5.7c0-1.3,0.4-2.7,1.1-4.1c2,2.3,3.9,4,5.7,5.1c2.4,1.5,5.1,2.6,8.2,3.4c1.8,0.3,3.1,0.4,3.8,0.4      c-0.2-0.7-0.2-1.4-0.2-2c0-2.4,0.9-4.4,2.6-6.1c1.7-1.6,3.7-2.4,6-2.4c2.3,0,4.4,0.9,6.3,2.6c0.2,0,0.8-0.2,2-0.5      c1.2-0.4,2.3-0.9,3.4-1.6c-0.3,1.1-0.9,2.2-1.8,3.3c-0.9,0.7-1.5,1.2-1.8,1.4v0.1C467.9,41.5,469.5,41.1,471.7,40.2z"
   id="path1114" />
				<path
   class="st6"
   d="M470.8,142.8c1.1,2.6,1.7,5.4,1.7,8.4c0,3-0.6,5.8-1.7,8.4c-1.1,2.6-2.7,4.9-4.7,6.9c-2,2-4.3,3.6-6.9,4.7      c-2.6,1.1-5.4,1.7-8.4,1.7c-3,0-5.8-0.6-8.5-1.7c-2.6-1.1-4.9-2.7-6.9-4.7c-2-2-3.6-4.3-4.7-6.9c-1.1-2.6-1.7-5.4-1.7-8.4      c0-3,0.6-5.8,1.7-8.4c1.1-2.6,2.7-4.9,4.7-6.9c2-2,4.3-3.6,6.9-4.7c2.6-1.1,5.4-1.7,8.5-1.7c3,0,5.8,0.6,8.4,1.7      c2.6,1.1,4.9,2.7,6.9,4.7C468.1,137.9,469.6,140.2,470.8,142.8z M461.5,146.5h7.3c-0.4-1.6-1-3-1.8-4.4h-6.7      C461,143.5,461.3,145,461.5,146.5z M468.9,155.9h-7.3c-0.2,1.5-0.6,3-1.2,4.4h6.7C467.9,158.9,468.5,157.5,468.9,155.9z       M464.7,154.4l2-6.2l-1.3-0.6l-1.4,4.8l-1.1-3.1h-1.4l-1.1,3.1l-1.6-4.8v-1h1c-0.3-1.5-0.7-3-1.3-4.4h-6.7v4.4h2.3v1l-1.4,4.8      l-1.2-3.1h-1.4l-1.2,3.1l-1.5-4.8v-1h2.4v-4.4h-6.7c-0.6,1.4-1,2.9-1.2,4.4h0.9v1l-1.6,4.8l-1.1-3.1h-1.4l-1.1,3.1l-1.4-4.8      l-1.3,0.6l2,6.2l1.3,0.5l1.3-4.2l1.3,4.2l0.6-0.3l0.6,1.3c0.3,1.5,0.7,3,1.2,4.4h6.7v-4.4h-0.4v-1l1.3-4.2l1.2,4.2v1h-0.3v4.4      h6.7c0.6-1.4,1-2.9,1.3-4.4l0.5-1.3l0.6,0.3l1.3-4.2l1.3,4.2L464.7,154.4z M459.7,140.2h6.3c-0.6-0.8-1.2-1.5-2-2.2      c-2.7-2.7-5.9-4.4-9.6-5.1C456.6,135.1,458.4,137.5,459.7,140.2z M466,162.1h-6.3c-1.3,2.8-3,5.3-5.2,7.4      c3.7-0.7,6.8-2.4,9.6-5.1C464.7,163.7,465.4,163,466,162.1z M451.7,140.2h5.9c-1.4-2.8-3.4-5.3-5.9-7.5V140.2z M457.6,162.1      h-5.9v7.6C454.2,167.5,456.2,165,457.6,162.1z M449.8,169.6v-7.4h-5.9C445.3,165,447.3,167.4,449.8,169.6z M449.8,140.2v-7.4      c-2.5,2.1-4.5,4.6-5.8,7.4H449.8z M447.1,132.9c-3.6,0.7-6.8,2.4-9.6,5.1c-0.7,0.7-1.4,1.5-2,2.2h6.3      C443.1,137.5,444.9,135.1,447.1,132.9z M437.5,164.4c2.7,2.7,5.9,4.4,9.6,5.1c-2.2-2.2-4-4.7-5.2-7.4h-6.3      C436.1,163,436.8,163.7,437.5,164.4z M441.2,142.1h-6.8c-0.8,1.4-1.4,2.9-1.8,4.4h7.3C440.2,145,440.6,143.5,441.2,142.1z       M434.4,160.3h6.8c-0.6-1.4-1-2.9-1.2-4.4h-7.3C433,157.5,433.6,158.9,434.4,160.3z"
   id="path1116" />
				<path
   class="st6"
   d="M470.4,346.8c0.2,0.6,0.4,1.3,0.4,1.8c0,1.6-0.9,2.8-2.6,3.5v0.6c0,5.9-3.5,9.9-10.5,11.9      c-2.5,0.7-5,1-7.4,1c-4,0-7.7-1.1-11.1-3.2c-3.9-2.5-5.9-5.5-5.9-9.2l0-1.1c-1.3-1.3-1.9-1.9-2-1.9c-0.5-0.7-0.7-1.4-0.7-2.2      c0-1.1,0.5-2.1,1.4-3.1c0.9-1,2-1.5,3-1.5c0.8,0,1.6,0.2,2.4,0.7c0.5,0.3,0.7,0.5,0.7,0.6l2.5-1.3c3-1.5,6.1-2.3,9.3-2.3      l1.7-8.5c0.3-1.5,0.6-2.3,1-2.5c0.2,0,1.5,0.2,3.7,0.7c1.3,0.3,2.3,0.5,2.9,0.6l-0.3,1.6l-5.2-1.1c-0.1,0.5-0.8,3.5-2,9.1      c5.2,0.5,9,1.8,11.5,3.8c0.8-0.6,1.5-1,1.9-1.1c0.6-0.1,1.1-0.2,1.5-0.2C468.5,343.7,469.8,344.7,470.4,346.8z M460.6,351.8      c0-0.3,0-0.7,0-1c-0.4-1.7-1.4-2.6-3.1-2.6c-1.9,0.2-2.9,1.2-2.9,3.2c0,0.8,0.3,1.5,1,2.1c0.7,0.6,1.4,0.9,2.1,0.9      c0.4,0,0.7-0.1,1-0.2C460,353.8,460.6,353,460.6,351.8z M458.4,358.5c-0.1,0-0.3-0.1-0.4-0.1c-0.4,0-1,0.3-2,0.8      c-1.9,1-3.8,1.5-5.5,1.5c-2.3,0-4.4-0.8-6.4-2.5c-0.5,0.2-0.8,0.4-0.8,0.6c0,0.2,0.1,0.5,0.4,0.8c0.6,0.6,1.4,1,2.2,1.4      c1.6,0.6,3.2,0.9,4.8,0.9c1.7,0,3.5-0.3,5.1-1C457.6,360.2,458.4,359.4,458.4,358.5z M447.1,351.6c0-2.3-1.1-3.4-3.3-3.4      c-2.1,0.1-3.1,0.9-3.1,2.4c0,0.5,0.1,1.1,0.4,1.8c0.5,1.2,1.3,1.9,2.5,1.9c0.4,0,0.8-0.1,1.3-0.2      C446.4,353.7,447.1,352.9,447.1,351.6z"
   id="path1118" />
				<path
   class="st3"
   d="M468.9,146.5h-7.3c-0.2-1.5-0.6-3-1.2-4.4h6.7C467.9,143.5,468.5,145,468.9,146.5z"
   id="path1120" />
				<path
   class="st3"
   d="M461.5,155.9h7.3c-0.4,1.6-1,3-1.8,4.4h-6.7C461,158.9,461.3,157.4,461.5,155.9z"
   id="path1122" />
				<path
   class="st6"
   d="M468.7,259.1c0,0.2-0.2,0.8-0.7,1.9c-0.5,1.3-1.3,2.7-2.3,4c-1.1,1.5-2.1,2.6-3,3.4      c-1.3,1.1-2.6,1.6-3.9,1.6c-1,0-2.2-0.3-3.5-0.8s-2.5-0.8-3.7-0.8c-0.9,0-1.6,0.1-2.2,0.3c-0.6,0.2-1.2,0.4-1.7,0.5      c-0.5,0.2-1,0.4-1.6,0.6c-0.5,0.2-1.1,0.3-1.8,0.3h-0.3c-1.1,0-2.3-0.6-3.5-1.6c-0.9-0.8-1.9-2-3.1-3.5c-1.4-1.9-2.5-4-3.3-6.3      c-0.9-2.6-1.4-5.1-1.4-7.4c0-2.7,0.6-5,1.9-7.1c1-1.6,2.3-2.8,3.9-3.8c1.6-0.9,3.3-1.4,5.2-1.4c1.2,0,2.8,0.4,4.9,1.1      c1.1,0.4,1.9,0.6,2.4,0.6c0.5,0,1.7-0.4,3.6-1c1.5-0.6,2.9-0.8,4.1-0.8c0.3,0,0.5,0,0.8,0s0.8,0.1,1.4,0.2      c0.6,0.1,1.4,0.3,2.1,0.6c0.7,0.3,1.5,0.7,2.3,1.2c0.8,0.5,1.5,1.2,2.1,2.1c-0.2,0-0.6,0.3-1.3,0.8c-2.3,2-3.4,4.3-3.4,7      c0,2.5,1,4.7,3,6.4C466.6,258.1,467.5,258.7,468.7,259.1z"
   id="path1124" />
				<polygon
   class="st3"
   points="466.8,148.1 464.7,154.4 463.4,154.9 462.1,150.6 460.9,154.9 460.3,154.6 459.6,154.4       457.5,148.1 458.8,147.6 460.4,152.4 461.4,149.3 462.9,149.3 464,152.4 465.4,147.6     "
   id="polygon1126" />
				<path
   class="st6"
   d="M466.3,332.7l0,0.9c0,1.9-1.1,2.8-3.2,2.8c-1.7,0-2.7-1-3-3.1l-1.1-0.2l0.3-1.6c0.5,0.1,0.8,0.1,0.9,0.1      c0.2-0.1,0.6-0.3,1.1-0.8c0.5-0.5,0.9-0.8,1.3-0.8l0.8-0.1C465,330,466,330.9,466.3,332.7z"
   id="path1128" />
				<path
   class="st3"
   d="M466,140.2h-6.3c-1.3-2.7-3-5.2-5.2-7.4c3.7,0.7,6.8,2.4,9.6,5.1C464.7,138.7,465.4,139.5,466,140.2z"
   id="path1130" />
				<path
   class="st3"
   d="M459.7,162.1h6.3c-0.6,0.8-1.2,1.6-2,2.3c-2.7,2.7-5.9,4.4-9.6,5.1C456.6,167.4,458.4,164.9,459.7,162.1z"
   id="path1132" />
				<path
   class="st6"
   d="M464.9,427.7c0.5,0.9,0.6,2.2,0.2,3.8c-0.3,1.6-0.8,3.8-1.4,6.7c-0.6,2.9-1.1,5.5-1.7,8s-0.9,3.9-1,4.4      c-0.1,0.6-0.4,1.3-0.8,2c-0.5,0.7-1.4,1-2.8,1c-0.7,0-1.5,0-2.5,0s-1.9,0-2.6,0c-0.8,0-1.2,0-1.3,0c-0.1,0-0.1,0-0.2,0      c-0.1,0-0.1,0.1-0.2,0.2c-0.1,0.1-0.6,0.8-1.7,2c-1,1.2-2.2,2.6-3.6,4.1c-1.3,1.6-3,3.5-5.1,5.9c-0.5,0.5-0.9,0.7-1.4,0.7      c-0.5,0-0.9,0-1.1-0.1c-0.3-0.1-0.5-0.3-0.9-0.6c-0.3-0.3-0.5-0.9-0.5-1.8V430c0-0.7,0.3-1.5,0.8-2.4c0.5-0.9,1.5-1.3,3-1.3      c0.7,0,2.2,0,4.5,0c2.3,0,4.7,0,7.3,0c2.6,0,4.8,0,6.7,0c1.9,0,2.9,0,3.1,0C463.3,426.3,464.4,426.8,464.9,427.7z M460.5,432.2      c0.1-0.4,0-0.8-0.2-1c-0.3-0.3-0.5-0.4-0.8-0.4H442c-0.3,0-0.6,0.1-0.8,0.3c-0.2,0.2-0.3,0.5-0.3,0.8v27c0,0,0,0.1,0,0.1      c0,0,0.1,0,0.1-0.1c1.3-1.6,2.4-2.9,3.3-4.1c0.9-1.1,1.6-2.1,2.4-3c0.7-0.9,1.2-1.5,1.4-1.8c0.3-0.4,0.6-0.7,0.9-0.8      c0.3-0.1,0.7-0.2,1.3-0.2h5.8c0.4,0,0.6-0.1,0.8-0.3c0.2-0.2,0.3-0.4,0.3-0.6c0.1-0.2,0.1-0.6,0.3-1.2c0.1-0.6,0.3-1.3,0.4-2      c0.1-0.7,0.2-1.2,0.3-1.5c0.1-0.3,0-0.6-0.2-0.9c-0.2-0.3-0.5-0.4-0.8-0.4H450c-0.5,0-0.9-0.2-1.2-0.5c-0.3-0.3-0.5-0.8-0.5-1.2      v-1c0-0.5,0.2-0.9,0.5-1.2c0.3-0.3,0.7-0.5,1.2-0.5h8.4c0.3,0,0.6-0.1,0.8-0.3c0.2-0.2,0.4-0.4,0.4-0.7L460.5,432.2z"
   id="path1134" />
				<path
   class="st5"
   d="M460.6,350.8c0,0.3,0,0.7,0,1c0,1.2-0.7,2-2,2.4c-0.3,0.1-0.7,0.2-1,0.2c-0.7,0-1.4-0.3-2.1-0.9      c-0.6-0.6-1-1.3-1-2.1c0-1.9,1-3,2.9-3.2C459.2,348.2,460.2,349,460.6,350.8z"
   id="path1136" />
				<path
   class="st1"
   d="M460.3,431.2c0.2,0.3,0.3,0.6,0.2,1l-1,4.6c0,0.2-0.1,0.5-0.4,0.7c-0.2,0.2-0.5,0.3-0.8,0.3H450      c-0.5,0-0.9,0.2-1.2,0.5c-0.3,0.3-0.5,0.7-0.5,1.2v1c0,0.5,0.2,0.9,0.5,1.2c0.3,0.4,0.7,0.5,1.2,0.5h7.1c0.3,0,0.6,0.1,0.8,0.4      c0.2,0.3,0.3,0.5,0.2,0.9c0,0.3-0.1,0.8-0.3,1.5c-0.1,0.7-0.3,1.4-0.4,2c-0.1,0.6-0.2,1-0.3,1.2c0,0.2-0.1,0.4-0.3,0.6      c-0.2,0.2-0.5,0.3-0.8,0.3h-5.8c-0.6,0-1,0.1-1.3,0.2c-0.3,0.1-0.6,0.4-0.9,0.8c-0.2,0.3-0.7,0.9-1.4,1.8      c-0.7,0.9-1.5,1.9-2.4,3c-0.9,1.1-2,2.5-3.3,4.1c0,0.1-0.1,0.1-0.1,0.1c0,0,0,0,0-0.1v-27c0-0.3,0.1-0.6,0.3-0.8      c0.2-0.2,0.5-0.3,0.8-0.3h17.4C459.8,430.8,460,430.9,460.3,431.2z"
   id="path1138" />
				<polygon
   class="st6"
   points="460.3,154.6 459.7,155.9 452,155.9 452,154.9 453.3,154.4 455.3,148.1 454,147.6 454,146.5       458.8,146.5 458.8,147.6 457.5,148.1 459.6,154.4     "
   id="polygon1140" />
				<path
   class="st3"
   d="M459.7,146.5h-1H454h-2.3v-4.4h6.7C459,143.5,459.5,145,459.7,146.5z"
   id="path1142" />
				<path
   class="st3"
   d="M452,155.9h7.8c-0.3,1.5-0.7,3-1.3,4.4h-6.7v-4.4H452z"
   id="path1144" />
				<path
   class="st6"
   d="M459.5,229.1l0.1,0.8c0,2.1-0.8,3.9-2.3,5.7c-0.8,0.9-1.7,1.6-2.9,2.1c-1.1,0.6-2.3,0.8-3.4,0.8h-0.2      c-0.1-0.3-0.1-0.7-0.1-1c0-1.9,0.8-3.7,2.4-5.4C455,230.2,457.1,229.2,459.5,229.1z"
   id="path1146" />
				<path
   class="st5"
   d="M458,358.4c0.1,0,0.3,0,0.4,0.1c0,0.9-0.8,1.7-2.5,2.4c-1.7,0.7-3.4,1-5.1,1c-1.6,0-3.2-0.3-4.8-0.9      c-0.9-0.3-1.6-0.8-2.2-1.4c-0.3-0.3-0.4-0.5-0.4-0.8c0-0.3,0.3-0.5,0.8-0.6c2,1.7,4.1,2.5,6.4,2.5c1.7,0,3.6-0.5,5.5-1.5      C457,358.7,457.6,358.4,458,358.4z"
   id="path1148" />
				<path
   class="st3"
   d="M457.6,140.2h-5.9v-7.5C454.2,134.9,456.2,137.4,457.6,140.2z"
   id="path1150" />
				<path
   class="st3"
   d="M451.7,162.1h5.9c-1.4,2.8-3.4,5.3-5.9,7.6V162.1z"
   id="path1152" />
				<polygon
   class="st3"
   points="455.3,148.1 453.3,154.4 452,154.9 450.8,150.6 449.5,154.9 448.2,154.4 446.1,148.1 447.4,147.6       448.9,152.4 450.1,149.3 451.5,149.3 452.6,152.4 454,147.6     "
   id="polygon1154" />
				<path
   class="st3"
   d="M449.8,162.1v7.4c-2.5-2.1-4.5-4.6-5.9-7.4H449.8z"
   id="path1156" />
				<path
   class="st3"
   d="M449.8,155.9v4.4h-6.7c-0.6-1.4-1-2.9-1.2-4.4h7.6H449.8z"
   id="path1158" />
				<path
   class="st3"
   d="M449.8,142.1v4.4h-2.4h-4.7h-0.9c0.3-1.5,0.7-3,1.2-4.4H449.8z"
   id="path1160" />
				<path
   class="st3"
   d="M449.8,132.9v7.4H444C445.4,137.4,447.3,135,449.8,132.9z"
   id="path1162" />
				<polygon
   class="st6"
   points="449.5,154.9 449.5,155.9 441.9,155.9 441.3,154.6 441.9,154.4 444,148.1 442.7,147.6 442.7,146.5       447.4,146.5 447.4,147.6 446.1,148.1 448.2,154.4     "
   id="polygon1164" />
				<path
   class="st5"
   d="M443.8,348.2c2.2,0,3.3,1.1,3.3,3.4c0,1.3-0.7,2.1-2.2,2.4c-0.5,0.1-0.9,0.2-1.3,0.2c-1.2,0-2-0.6-2.5-1.9      c-0.2-0.7-0.4-1.3-0.4-1.8C440.7,349.1,441.8,348.3,443.8,348.2z"
   id="path1166" />
				<polygon
   class="st3"
   points="444,148.1 441.9,154.4 441.3,154.6 440.6,154.9 439.4,150.6 438.1,154.9 436.8,154.4 434.8,148.1       436.1,147.6 437.5,152.4 438.6,149.3 440.1,149.3 441.2,152.4 442.7,147.6     "
   id="polygon1168" />
				<path
   class="st3"
   d="M437.5,138c2.7-2.7,5.9-4.4,9.6-5.1c-2.2,2.2-3.9,4.6-5.2,7.4h-6.3C436.1,139.5,436.8,138.7,437.5,138z"
   id="path1170" />
				<path
   class="st3"
   d="M447.1,169.6c-3.6-0.7-6.8-2.4-9.6-5.1c-0.7-0.7-1.4-1.5-2-2.3h6.3C443.1,164.9,444.9,167.4,447.1,169.6z"
   id="path1172" />
				<path
   class="st3"
   d="M434.4,142.1h6.8c-0.6,1.4-1,2.9-1.2,4.4h-7.3C433,145,433.6,143.5,434.4,142.1z"
   id="path1174" />
				<path
   class="st3"
   d="M441.2,160.3h-6.8c-0.8-1.4-1.4-2.9-1.8-4.4h7.3C440.2,157.4,440.6,158.9,441.2,160.3z"
   id="path1176" />
				<path
   class="st7"
   d="M387,38.1c2,4.8,3,9.8,3,15.1c0,5.3-1,10.3-3,15.1c-2,4.8-4.9,9.1-8.6,12.9c-3.8,3.8-8.1,6.6-12.9,8.6      c-4.8,2-9.9,3-15.1,3c-5.3,0-10.3-1-15.1-3c-4.8-2-9.1-4.9-12.9-8.6c-3.8-3.8-6.6-8.1-8.6-12.9c-2-4.8-3-9.8-3-15.1      c0-5.3,1-10.3,3-15.1c2-4.8,4.9-9.1,8.6-12.9c3.8-3.8,8-6.6,12.9-8.6c4.8-2,9.8-3,15.1-3c5.3,0,10.3,1,15.1,3      c4.8,2,9.1,4.9,12.9,8.6C382.1,29,385,33.3,387,38.1z M362.3,73h7.6c-0.1-7.3-1.4-13.8-4.1-19.5c-1.2-2.5-2.7-5-4.6-7.4      s-4.2-4.6-7-6.5c-2.8-1.9-6.1-3.6-10-4.9c-3.8-1.3-8.3-2.2-13.4-2.4v7.9c5.5,0.7,10.6,2.4,15,4.9c1.9,1.2,3.7,2.5,5.6,4.1      c1.9,1.6,3.6,3.5,5.1,5.8c1.5,2.2,2.8,4.9,3.9,7.9S362.1,69.2,362.3,73z M349,73.2h7.6c-0.2-4.9-1.2-9.3-3-13.3      c-0.8-1.6-1.8-3.2-3.1-4.9c-1.2-1.6-2.8-3.1-4.6-4.5c-1.8-1.3-4-2.4-6.4-3.3c-2.5-0.8-5.4-1.3-8.6-1.5v8      c3.2,0.4,6.1,1.3,8.7,2.6c1.1,0.7,2.2,1.5,3.3,2.5c1,1,2,2.1,2.9,3.5c0.9,1.3,1.6,2.9,2.2,4.6C348.5,68.9,348.8,70.9,349,73.2z       M342.2,67.5c0-1.5-0.6-2.8-1.7-4c-1.1-1.1-2.5-1.7-4-1.7c-1.5,0-2.9,0.6-4,1.7c-1.1,1.1-1.7,2.5-1.7,4c0,1.6,0.6,3,1.7,4.1      c1.1,1.1,2.5,1.7,4,1.7c1.6,0,2.9-0.6,4-1.7C341.7,70.4,342.2,69.1,342.2,67.5z"
   id="path1178" />
				<path
   class="st8"
   d="M387,136.5c2,4.8,3,9.8,3,15.1c0,5.3-1,10.3-3,15.1c-2,4.8-4.9,9.1-8.6,12.9c-3.8,3.8-8.1,6.6-12.9,8.6      c-4.8,2-9.9,3-15.1,3c-5.3,0-10.3-1-15.1-3c-4.8-2-9.1-4.9-12.9-8.6c-3.8-3.8-6.6-8.1-8.6-12.9c-2-4.8-3-9.8-3-15.1      c0-5.3,1-10.3,3-15.1c2-4.8,4.9-9.1,8.6-12.9c3.8-3.8,8-6.6,12.9-8.6c4.8-2,9.8-3,15.1-3c5.3,0,10.3,1,15.1,3      c4.8,2,9.1,4.9,12.9,8.6C382.1,127.4,385,131.7,387,136.5z"
   id="path1180" />
				<path
   class="st9"
   d="M387,234.9c2,4.8,3,9.8,3,15.1s-1,10.3-3,15.1c-2,4.8-4.9,9.1-8.6,12.9c-3.8,3.8-8.1,6.6-12.9,8.6      c-4.8,2-9.9,3-15.1,3c-5.3,0-10.3-1-15.1-3c-4.8-2-9.1-4.9-12.9-8.6c-3.8-3.8-6.6-8-8.6-12.9c-2-4.8-3-9.8-3-15.1s1-10.3,3-15.1      c2-4.8,4.9-9.1,8.6-12.9c3.8-3.8,8-6.6,12.9-8.6c4.8-2,9.8-3,15.1-3c5.3,0,10.3,1,15.1,3c4.8,2,9.1,4.9,12.9,8.6      C382.1,225.8,385,230.1,387,234.9z M372.6,251.7v-4.1h-4.1v-4.1h-4v4.1h-4.1v4.1h4.1v4.1h4v-4.1H372.6z M355.8,249.5      c0-0.5,0-1.1,0-1.8v-0.1c-9,0-13.5,0-13.5,0.1v4.8c0.3,0,3,0.1,8.1,0.1c0,0.2-0.2,0.7-0.6,1.4c-0.1,0.7-0.8,1.7-2.1,2.9      c-1.7,1.1-3.5,1.7-5.4,1.7c-2.6,0-4.8-1-6.7-3c-1.4-1.6-2-3.6-2-5.9c0-1.6,0.4-3.2,1.2-4.6c0.6-1.1,1.3-1.9,2.2-2.5      c1.4-1.2,3.1-1.8,5.2-1.8s4,0.6,6,1.9c0.1,0,0.2-0.1,0.4-0.4c1.5-1.5,2.6-2.6,3.1-3.3c-3-2.4-6-3.5-8.9-3.5h-0.6      c-3.1,0-5.9,0.9-8.3,2.8c-2.6,1.9-4.3,4.3-5.2,7.3c-0.4,1.1-0.6,2.6-0.6,4.4c0,1.5,0.3,3.1,0.8,4.6c1.1,3,3.1,5.5,5.8,7.3      c2.3,1.4,4.9,2.1,7.6,2.1c3,0,5.8-0.9,8.5-2.7C354.1,258.6,355.8,254.7,355.8,249.5z"
   id="path1182" />
				<path
   class="st10"
   d="M387,333.3c2,4.8,3,9.9,3,15.1c0,5.3-1,10.3-3,15.1c-2,4.8-4.9,9.1-8.6,12.9c-3.8,3.8-8.1,6.6-12.9,8.6      c-4.8,2-9.9,3-15.1,3c-5.3,0-10.3-1-15.1-3c-4.8-2-9.1-4.9-12.9-8.6c-3.8-3.8-6.6-8.1-8.6-12.9c-2-4.8-3-9.9-3-15.1      c0-5.3,1-10.3,3-15.1c2-4.8,4.9-9.1,8.6-12.9c3.8-3.8,8-6.6,12.9-8.6c4.8-2,9.8-3,15.1-3c5.3,0,10.3,1,15.1,3      c4.8,2,9.1,4.9,12.9,8.6C382.1,324.2,385,328.5,387,333.3z M362.5,367c-0.3-1-1.1-3-2.2-6.1c-1.3,0.6-2.4,1-3.4,1      c-2.2,0-3.5-1.6-4-4.8c0-0.1,0.1-4.3,0.3-12.7h8.2v-6.3c-4-0.2-6.9-0.4-8.5-0.4l0-10.4h-6.3c-1.1,6.3-3.9,10.1-8.4,11.6v5.5      c2,0.3,3.3,0.4,3.9,0.4c0.3,0,0.4,0,0.4-0.1v2.7c0,1.4-0.1,3.1-0.2,5.1c-0.1,1.3-0.1,2.5-0.1,3.5c0,1.4,0,2.5,0.2,3.4      c0.6,4.6,3.1,7.6,7.5,9.3c1.6,0.6,3.2,0.8,4.8,0.8C357.4,369.5,360,368.6,362.5,367z"
   id="path1184" />
				<path
   class="st11"
   d="M387,431.7c2,4.8,3,9.8,3,15.1c0,5.3-1,10.3-3,15.1c-2,4.8-4.9,9.1-8.6,12.9c-3.8,3.8-8.1,6.6-12.9,8.6      c-4.8,2-9.9,3-15.1,3c-5.3,0-10.3-1-15.1-3c-4.8-2-9.1-4.9-12.9-8.6c-3.8-3.8-6.6-8.1-8.6-12.9c-2-4.8-3-9.9-3-15.1      c0-5.3,1-10.3,3-15.1c2-4.8,4.9-9.1,8.6-12.9c3.8-3.8,8-6.6,12.9-8.6c4.8-2,9.8-3,15.1-3c5.3,0,10.3,1,15.1,3      c4.8,2,9.1,4.9,12.9,8.6C382.1,422.6,385,426.9,387,431.7z M371.3,447.1v-2.5c-0.5-5.3-2.5-9.6-6-13.2      c-3.4-3.4-7.8-5.4-13.2-5.9h-2.5c-5.7,0.6-10.1,2.6-13.5,6.2c-3.8,4.1-5.8,8.8-5.8,14c0,3.2,0.8,6.4,2.4,9.5      c0.2,0.4,0.2,0.8,0.2,1.2c0,0.4-0.1,0.9-0.2,1.3c-2.2,6.4-3.3,9.6-3.3,9.6l0.2-0.2c0,0.1,0.1,0.2,0.1,0.2      c1.4-0.5,3.3-1.1,5.6-1.8c3-1,4.9-1.6,5.6-1.8c3.4,1.7,6.7,2.6,9.9,2.6h0.6c3.8-0.2,7.1-1.1,10.1-3      C367.3,459.6,370.6,454.3,371.3,447.1z"
   id="path1186" />
				<polygon
   class="st6"
   points="372.6,247.6 372.6,251.7 368.5,251.7 368.5,255.8 364.5,255.8 364.5,251.7 360.5,251.7       360.5,247.6 364.5,247.6 364.5,243.6 368.5,243.6 368.5,247.6     "
   id="polygon1188" />
				<path
   class="st6"
   d="M371.3,444.6v2.5c-0.7,7.1-4,12.5-9.8,16.1c-3,1.8-6.3,2.8-10.1,3h-0.6c-3.2,0-6.5-0.9-9.9-2.6      c-0.7,0.2-2.6,0.8-5.6,1.8c-2.3,0.7-4.2,1.3-5.6,1.8c-0.1,0-0.1-0.1-0.1-0.2l-0.2,0.2c0,0,1.1-3.3,3.3-9.6      c0.1-0.4,0.2-0.8,0.2-1.3c0-0.4-0.1-0.8-0.2-1.2c-1.6-3.2-2.4-6.4-2.4-9.5c0.1-5.2,2-9.9,5.8-14c3.3-3.5,7.8-5.6,13.5-6.2h2.5      c5.4,0.5,9.8,2.4,13.2,5.9C368.8,435,370.8,439.3,371.3,444.6z M367.4,450.7c0.5-1.8,0.7-3.5,0.7-5.1c0-3.9-1.4-7.4-4.3-10.7      c-3.4-4.1-7.7-6.1-13.1-6.1c-0.5,0-0.9,0-1.4,0c-3.1,0.2-6,1.2-8.6,3.1c-4.8,3.5-7.3,8.1-7.3,13.7c0,0.7,0,1.3,0.1,2      c0.2,2.3,0.9,4.5,2,6.6c0.8,1.2,1.1,1.8,1.2,1.8l-0.6,1.6c-0.9,2.8-1.4,4.4-1.5,4.6l6.6-2.1c2.7,1.6,5.2,2.5,7.5,2.8      c0.6,0.1,1.2,0.1,1.8,0.1c2.4,0,4.8-0.5,7-1.5C362.6,459.3,365.9,455.7,367.4,450.7z"
   id="path1190" />
				<path
   class="st6"
   d="M369.9,73h-7.6c-0.2-3.8-0.8-7.2-1.8-10.2s-2.3-5.6-3.9-7.9c-1.5-2.2-3.2-4.2-5.1-5.8      c-1.9-1.6-3.7-3-5.6-4.1c-4.5-2.5-9.5-4.2-15-4.9v-7.9c5.1,0.3,9.6,1.1,13.4,2.4c3.8,1.3,7.1,3,10,4.9c2.8,1.9,5.1,4.1,7,6.5      s3.4,4.9,4.6,7.4C368.5,59.3,369.8,65.7,369.9,73z"
   id="path1192" />
				<path
   class="st11"
   d="M368.1,445.6c0,1.6-0.2,3.3-0.7,5.1c-1.5,5-4.8,8.6-9.8,10.8c-2.2,1-4.5,1.5-7,1.5c-0.6,0-1.2,0-1.8-0.1      c-2.3-0.3-4.9-1.2-7.5-2.8l-6.6,2.1c0.1-0.3,0.6-1.8,1.5-4.6l0.6-1.6c0,0-0.4-0.6-1.2-1.8c-1.1-2.1-1.8-4.3-2-6.6      c-0.1-0.6-0.1-1.3-0.1-2c0-5.6,2.4-10.2,7.3-13.7c2.6-1.9,5.5-2.9,8.6-3.1c0.5,0,0.9,0,1.4,0c5.3,0,9.7,2,13.1,6.1      C366.7,438.1,368.1,441.7,368.1,445.6z M361.1,451.1c0-0.2,0-0.3,0-0.5c-0.3-0.3-0.4-0.4-0.4-0.4s-0.6-0.3-1.8-0.9      c-1.5-0.7-2.4-1.1-2.6-1.1c-0.2,0-0.7,0.4-1.3,1.2c-0.7,0.9-1.1,1.3-1.3,1.3h-0.1c-0.4,0-1.2-0.3-2.4-1      c-1.3-0.7-2.6-1.8-3.7-3.3c-0.9-1.2-1.4-2-1.4-2.3l0.9-1.2c0.5-0.5,0.8-1,0.8-1.4c0-0.1-0.3-1-1-2.6c-0.6-1.4-1.1-2.2-1.3-2.3      c-0.3-0.1-0.6-0.2-0.9-0.2s-0.7,0-1.1,0.1c-1.7,0.5-2.6,2.1-2.6,4.7c0,1.5,0.8,3.4,2.4,5.7c2.2,3.1,4.7,5.3,7.3,6.5      c2,1,3.8,1.6,5.2,1.8h0.5c0.8,0,1.7-0.2,2.7-0.7C360.4,453.9,361.1,452.7,361.1,451.1z"
   id="path1194" />
				<path
   class="st6"
   d="M360.3,360.9c1.1,3.1,1.8,5.1,2.2,6.1c-2.5,1.6-5.1,2.5-7.7,2.5c-1.6,0-3.2-0.3-4.8-0.8      c-4.4-1.6-6.9-4.7-7.5-9.3c-0.1-0.9-0.2-2-0.2-3.4c0-1,0-2.2,0.1-3.5c0.1-2,0.2-3.7,0.2-5.1v-2.7c0,0-0.1,0.1-0.4,0.1      c-0.6,0-2-0.1-3.9-0.4v-5.5c4.5-1.5,7.3-5.3,8.4-11.6h6.3l0,10.4c1.6,0,4.5,0.1,8.5,0.4v6.3h-8.2c-0.2,8.3-0.3,12.5-0.3,12.7      c0.5,3.2,1.8,4.8,4,4.8C357.9,361.9,359,361.5,360.3,360.9z"
   id="path1196" />
				<path
   class="st6"
   d="M361.1,450.6c0,0.2,0,0.4,0,0.5c0,1.6-0.8,2.8-2.2,3.6c-1,0.5-1.9,0.7-2.7,0.7h-0.5      c-1.5-0.2-3.2-0.8-5.2-1.8c-2.6-1.2-5.1-3.4-7.3-6.5c-1.6-2.3-2.4-4.2-2.4-5.7c0-2.7,0.9-4.2,2.6-4.7c0.4-0.1,0.7-0.1,1.1-0.1      s0.7,0.1,0.9,0.2c0.2,0.1,0.6,0.9,1.3,2.3c0.7,1.6,1,2.5,1,2.6c0,0.4-0.3,0.9-0.8,1.4l-0.9,1.2c0,0.3,0.5,1.1,1.4,2.3      c1.1,1.5,2.4,2.6,3.7,3.3c1.2,0.7,2,1,2.4,1h0.1c0.2,0,0.6-0.5,1.3-1.3c0.7-0.8,1.1-1.2,1.3-1.2c0.3,0,1.2,0.4,2.6,1.1      c1.2,0.6,1.8,0.9,1.8,0.9S360.8,450.3,361.1,450.6z"
   id="path1198" />
				<path
   class="st6"
   d="M356.6,73.2H349c-0.2-2.3-0.5-4.4-1.1-6.1c-0.6-1.7-1.3-3.3-2.2-4.6c-0.9-1.3-1.9-2.5-2.9-3.5      c-1-1-2.1-1.8-3.3-2.5c-2.6-1.3-5.5-2.2-8.7-2.6v-8c3.3,0.1,6.2,0.6,8.6,1.5c2.5,0.9,4.6,1.9,6.4,3.3c1.8,1.3,3.4,2.8,4.6,4.5      c1.2,1.6,2.3,3.3,3.1,4.9C355.4,63.9,356.4,68.3,356.6,73.2z"
   id="path1200" />
				<path
   class="st6"
   d="M355.8,247.7c0,0.6,0,1.2,0,1.8c0,5.2-1.7,9.1-5.1,11.7c-2.7,1.8-5.5,2.7-8.5,2.7c-2.8,0-5.3-0.7-7.6-2.1      c-2.7-1.8-4.6-4.2-5.8-7.3c-0.6-1.5-0.8-3.1-0.8-4.6c0-1.8,0.2-3.3,0.6-4.4c0.9-3,2.6-5.4,5.2-7.3c2.5-1.8,5.3-2.8,8.3-2.8h0.6      c2.9,0,5.8,1.2,8.9,3.5c-0.5,0.7-1.6,1.8-3.1,3.3c-0.2,0.3-0.4,0.4-0.4,0.4c-2-1.3-4-1.9-6-1.9s-3.8,0.6-5.2,1.8      c-0.9,0.6-1.6,1.5-2.2,2.5c-0.8,1.4-1.2,2.9-1.2,4.6c0,2.3,0.7,4.3,2,5.9c1.9,2,4.2,3,6.7,3c2,0,3.8-0.6,5.4-1.7      c1.3-1.2,1.9-2.2,2.1-2.9c0.4-0.7,0.6-1.2,0.6-1.4c-5.1,0-7.8-0.1-8.1-0.1v-4.8C342.2,247.7,346.7,247.6,355.8,247.7      L355.8,247.7z"
   id="path1202" />
				<path
   class="st6"
   d="M340.6,63.5c1.1,1.1,1.7,2.5,1.7,4c0,1.6-0.6,3-1.7,4.1c-1.1,1.1-2.5,1.7-4,1.7c-1.5,0-2.9-0.6-4-1.7      c-1.1-1.1-1.7-2.5-1.7-4.1c0-1.5,0.6-2.8,1.7-4c1.1-1.1,2.5-1.7,4-1.7C338.1,61.8,339.5,62.4,340.6,63.5z"
   id="path1204" />
				<path
   class="st12"
   d="M286.6,38.1c2,4.8,3,9.8,3,15.1c0,5.3-1,10.3-3,15.1c-2,4.8-4.9,9.1-8.6,12.9c-3.8,3.8-8,6.6-12.9,8.6      c-4.8,2-9.8,3-15.1,3c-5.3,0-10.3-1-15.1-3c-4.8-2-9.1-4.9-12.9-8.6c-3.8-3.8-6.6-8.1-8.6-12.9c-2-4.8-3-9.8-3-15.1      c0-5.3,1-10.3,3-15.1c2-4.8,4.9-9.1,8.6-12.9c3.8-3.8,8-6.6,12.9-8.6c4.8-2,9.8-3,15.1-3c5.3,0,10.3,1,15.1,3      c4.8,2,9.1,4.9,12.9,8.6C281.7,29,284.6,33.3,286.6,38.1z M272.7,54.4v-2.8c-0.5-5.8-2.7-10.7-6.6-14.8c-4-4-8.9-6.2-14.7-6.6      h-2.9c-5.8,0.5-10.6,2.7-14.6,6.6c-4,4.1-6.3,9-6.7,14.8v2.8c0.5,5.8,2.7,10.7,6.7,14.7c4,4,8.9,6.2,14.6,6.7h2.9      c5.7-0.5,10.6-2.7,14.7-6.7c2-2,3.5-4.3,4.6-6.7C271.8,60,272.4,57.3,272.7,54.4z"
   id="path1206" />
				<path
   class="st13"
   d="M286.6,136.5c2,4.8,3,9.8,3,15.1c0,5.3-1,10.3-3,15.1c-2,4.8-4.9,9.1-8.6,12.9c-3.8,3.8-8,6.6-12.9,8.6      c-4.8,2-9.8,3-15.1,3c-5.3,0-10.3-1-15.1-3c-4.8-2-9.1-4.9-12.9-8.6c-3.8-3.8-6.6-8.1-8.6-12.9c-2-4.8-3-9.8-3-15.1      c0-5.3,1-10.3,3-15.1c2-4.8,4.9-9.1,8.6-12.9c3.8-3.8,8-6.6,12.9-8.6c4.8-2,9.8-3,15.1-3c5.3,0,10.3,1,15.1,3      c4.8,2,9.1,4.9,12.9,8.6C281.7,127.4,284.6,131.7,286.6,136.5z M274,151.5c0-6.6-2.4-12.3-7-17c-4.7-4.7-10.4-7-17-7      s-12.3,2.3-17,7c-4.7,4.7-7,10.4-7,17c0,6.6,2.4,12.3,7,17c4.7,4.7,10.4,7,17,7s12.3-2.4,17-7C271.6,163.8,274,158.1,274,151.5z      "
   id="path1208" />
				<path
   class="st14"
   d="M286.6,234.9c2,4.8,3,9.8,3,15.1s-1,10.3-3,15.1c-2,4.8-4.9,9.1-8.6,12.9c-3.8,3.8-8,6.6-12.9,8.6      c-4.8,2-9.8,3-15.1,3c-5.3,0-10.3-1-15.1-3c-4.8-2-9.1-4.9-12.9-8.6c-3.8-3.8-6.6-8-8.6-12.9c-2-4.8-3-9.8-3-15.1s1-10.3,3-15.1      c2-4.8,4.9-9.1,8.6-12.9c3.8-3.8,8-6.6,12.9-8.6c4.8-2,9.8-3,15.1-3c5.3,0,10.3,1,15.1,3c4.8,2,9.1,4.9,12.9,8.6      C281.7,225.8,284.6,230.1,286.6,234.9z M260.8,236v-6.6c-1.8-0.2-3.7-0.3-5.7-0.3c-3.9,0-6.6,1.4-8.3,4.2      c-0.9,1.6-1.4,3.4-1.4,5.4v5.7h-6.4v7.4h6.4v19.1h7.7v-19.1h6.4l1-7.4h-7.4v-4.2c0-1.2,0.1-1.9,0.2-2.2c0-0.1,0.1-0.3,0.3-0.7      c0.5-0.9,1.7-1.3,3.7-1.3H260.8z"
   id="path1210" />
				<path
   class="st15"
   d="M286.6,333.3c2,4.8,3,9.9,3,15.1c0,5.3-1,10.3-3,15.1c-2,4.8-4.9,9.1-8.6,12.9c-3.8,3.8-8,6.6-12.9,8.6      c-4.8,2-9.8,3-15.1,3c-5.3,0-10.3-1-15.1-3c-4.8-2-9.1-4.9-12.9-8.6c-3.8-3.8-6.6-8.1-8.6-12.9c-2-4.8-3-9.9-3-15.1      c0-5.3,1-10.3,3-15.1c2-4.8,4.9-9.1,8.6-12.9c3.8-3.8,8-6.6,12.9-8.6c4.8-2,9.8-3,15.1-3c5.3,0,10.3,1,15.1,3      c4.8,2,9.1,4.9,12.9,8.6C281.7,324.2,284.6,328.5,286.6,333.3z M271.3,347.9c0-1.3-0.3-2.6-0.7-3.8c-0.5-1.2-1.2-2.2-2.1-3.1      c-0.9-0.9-1.9-1.6-3.1-2.1c-1.2-0.5-2.4-0.7-3.8-0.7c-1.4,0-2.6,0.3-3.8,0.7c-1.2,0.5-2.2,1.2-3.1,2.1c-0.9,0.9-1.6,2-2.1,3.1      c-0.5,1.2-0.8,2.4-0.8,3.8c0,1.3,0.3,2.6,0.8,3.8c0.5,1.2,1.2,2.2,2.1,3.1c0.9,0.9,1.9,1.5,3.1,2c1.2,0.5,2.4,0.7,3.8,0.7      c1.3,0,2.6-0.3,3.8-0.7c1.2-0.5,2.2-1.2,3.1-2c0.9-0.9,1.6-1.9,2.1-3.1C271,350.5,271.3,349.2,271.3,347.9z M248,347.9      c0-1.3-0.3-2.6-0.7-3.8c-0.5-1.2-1.2-2.2-2.1-3.1c-0.9-0.9-1.9-1.6-3.1-2.1c-1.2-0.5-2.5-0.7-3.8-0.7c-1.3,0-2.6,0.3-3.8,0.7      c-1.2,0.5-2.2,1.2-3.1,2.1c-0.9,0.9-1.6,2-2.1,3.1c-0.5,1.2-0.7,2.4-0.7,3.8c0,1.3,0.3,2.6,0.7,3.8c0.5,1.2,1.2,2.2,2.1,3.1      c0.9,0.9,1.9,1.5,3.1,2c1.2,0.5,2.4,0.7,3.8,0.7c1.3,0,2.6-0.3,3.8-0.7c1.2-0.5,2.2-1.2,3.1-2c0.9-0.9,1.6-1.9,2.1-3.1      C247.7,350.5,248,349.2,248,347.9z"
   id="path1212" />
				<path
   class="st16"
   d="M286.6,431.7c2,4.8,3,9.8,3,15.1c0,5.3-1,10.3-3,15.1c-2,4.8-4.9,9.1-8.6,12.9c-3.8,3.8-8,6.6-12.9,8.6      c-4.8,2-9.8,3-15.1,3c-5.3,0-10.3-1-15.1-3c-4.8-2-9.1-4.9-12.9-8.6c-3.8-3.8-6.6-8.1-8.6-12.9c-2-4.8-3-9.9-3-15.1      c0-5.3,1-10.3,3-15.1c2-4.8,4.9-9.1,8.6-12.9c3.8-3.8,8-6.6,12.9-8.6c4.8-2,9.8-3,15.1-3c5.3,0,10.3,1,15.1,3      c4.8,2,9.1,4.9,12.9,8.6C281.7,422.6,284.6,426.9,286.6,431.7z M269.9,453.8v-10.3l-0.1-0.6l-0.3-0.7l-0.5-0.5      c-0.2-0.1-0.6-0.1-1.1-0.2c-0.5,0-1-0.1-1.6-0.1c-0.6-0.1-1.1-0.1-1.6-0.1c-0.5-0.1-0.9-0.2-1.2-0.4c-0.4-0.3-0.6-0.7-0.7-1.4      c-0.1-0.6-0.2-1.3-0.3-2.1c-0.2-1.5-0.4-2.5-0.6-2.9c-0.2-0.4-0.4-0.9-0.6-1.4c-0.4-0.9-1-1.8-1.8-2.6c-0.8-0.8-1.6-1.5-2.5-2.1      c-0.9-0.6-1.8-1.1-2.8-1.4c-1-0.4-1.9-0.6-2.6-0.8h-8.9c-1.8,0-3.5,0.3-5,1c-1.5,0.7-2.9,1.6-4,2.7c-1.1,1.2-2,2.5-2.7,4.1      c-0.6,1.5-1,3.2-1,5v14.8c0,1.8,0.3,3.5,1,5c0.7,1.5,1.6,2.9,2.7,4c1.1,1.2,2.5,2.1,4,2.7c1.5,0.6,3.2,1,5,1h14.6      c1.8,0,3.4-0.3,4.9-1c1.5-0.7,2.8-1.6,4-2.7c1.2-1.2,2.1-2.5,2.8-4C269.6,457.3,269.9,455.6,269.9,453.8z"
   id="path1214" />
				<path
   class="st6"
   d="M272.7,51.6v2.8c-0.2,2.9-0.9,5.6-2,8l-2.8-0.7c1.3-2.3,2-4.9,2.2-7.8c0-0.4,0.1-0.8,0.1-1.2      c0-3.1-0.8-6.1-2.4-8.8v0h0c0,0.5,0,1,0,1.5c0,2-0.3,3.9-0.9,5.7c-0.5,1.3-1.6,4.3-3.3,9c-0.7,1.8-1.3,3.5-1.8,5l-2.5-1.4      c0.5-1.8,1.1-3.7,1.7-5.9c1-3.2,1.6-5.2,1.6-6c0-0.1-1.1-3-3.2-8.7c-0.2-0.6-0.3-1.1-0.3-1.6c0-0.6,0.2-1.3,0.6-1.9      c0.6-1,1.5-1.5,2.6-1.5h0.2c-3.7-3.3-7.9-5-12.8-5c-0.6,0-1.1,0-1.6,0c-4.7,0.3-8.7,2-11.9,5.1l-2.3-1.4c4-4,8.9-6.2,14.6-6.6      h2.9c5.7,0.5,10.6,2.7,14.7,6.6C270,40.9,272.2,45.8,272.7,51.6z"
   id="path1216" />
				<path
   class="st6"
   d="M266.9,134.5c4.7,4.7,7,10.4,7,17c0,6.6-2.4,12.3-7,17c-4.7,4.7-10.4,7-17,7s-12.3-2.4-17-7      c-4.7-4.7-7-10.4-7-17c0-6.6,2.4-12.3,7-17c4.7-4.7,10.4-7,17-7S262.2,129.8,266.9,134.5z M270.4,151.3      C270.4,151.3,270.4,151.3,270.4,151.3c0-4.9-1.6-9.2-4.6-12.7c-0.2,0.4-1.2,1.4-3,3.1c-1.8,1.7-4.6,3.3-8.4,5c0.5,1,0.9,2,1.3,3      c0.1,0.2,0.1,0.3,0.2,0.5c0.1,0.2,0.2,0.4,0.3,0.6c3.4-0.4,6.5-0.4,9.2-0.1C268.1,150.9,269.8,151.1,270.4,151.3z M270.2,154.8      c-0.4-0.2-1.8-0.5-4.2-0.9c-2.4-0.4-5.2-0.4-8.5,0c1.3,3.8,2.3,7,2.9,9.6c0.6,2.6,1,4.3,1.1,5      C266.2,165.2,269.1,160.6,270.2,154.8z M260.8,139c1.7-1.6,2.6-2.5,2.8-2.9c-3.9-3.4-8.4-5.1-13.6-5.1c-1.7,0-3.3,0.2-4.8,0.5v0      c0.4,0.5,1.3,1.9,2.8,4c1.5,2.2,3.1,4.8,4.8,7.9C256.4,142.1,259,140.6,260.8,139z M258,170.4c-0.1-1-0.5-2.8-1.2-5.7      c-0.7-2.8-1.7-6.1-3.2-9.9c0,0-0.1,0-0.1,0l0,0c-3.8,1.4-6.9,3.1-9.3,4.9c-2.3,1.9-4,3.6-5.1,5.1c-1.1,1.5-1.7,2.5-1.7,2.8      c3.6,2.9,7.8,4.3,12.6,4.3C252.8,172,255.4,171.5,258,170.4z M251.7,151.6c0.1,0,0.3-0.1,0.4-0.1c-0.5-1.2-1.1-2.3-1.6-3.5      c-5.3,1.5-10,2.3-14.1,2.6c-4.1,0.3-6.4,0.4-7.1,0.3c0,0.2,0,0.4,0,0.6c0,5.3,1.8,9.8,5.3,13.7c0.2-0.3,0.9-1.4,2.2-3.1      c1.3-1.7,3.2-3.6,5.6-5.6c2.4-2,5.4-3.6,8.9-4.8C251.5,151.6,251.6,151.6,251.7,151.6z M248.8,144.8c-1.8-3.1-3.4-5.7-4.9-7.9      c-1.5-2.2-2.4-3.5-2.7-3.9c-6,3-9.8,7.7-11.4,14.3c0,0,0.1,0,0.1,0c0.7,0.1,2.8-0.1,6.4-0.3C239.8,146.7,244,146,248.8,144.8z"
   id="path1218" />
				<path
   class="st17"
   d="M270.5,344.2c0.5,1.2,0.7,2.4,0.7,3.8c0,1.3-0.3,2.6-0.7,3.8c-0.5,1.2-1.2,2.2-2.1,3.1      c-0.9,0.9-1.9,1.5-3.1,2c-1.2,0.5-2.4,0.7-3.8,0.7c-1.4,0-2.6-0.3-3.8-0.7c-1.2-0.5-2.2-1.2-3.1-2c-0.9-0.9-1.6-1.9-2.1-3.1      c-0.5-1.2-0.8-2.4-0.8-3.8c0-1.3,0.3-2.6,0.8-3.8c0.5-1.2,1.2-2.2,2.1-3.1c0.9-0.9,1.9-1.6,3.1-2.1c1.2-0.5,2.4-0.7,3.8-0.7      c1.3,0,2.6,0.3,3.8,0.7c1.2,0.5,2.2,1.2,3.1,2.1C269.4,341.9,270,343,270.5,344.2z"
   id="path1220" />
				<path
   class="st6"
   d="M267.8,61.8l2.8,0.7c-1.1,2.5-2.6,4.7-4.6,6.7c-4,4-8.9,6.2-14.7,6.7h-2.9c-5.8-0.5-10.6-2.7-14.6-6.7      c-4-4-6.2-9-6.7-14.7v-2.8c0.5-5.8,2.7-10.7,6.7-14.8l2.3,1.4c-1.1,1-2,2.2-2.9,3.5c1.7,0,3,0,4.1,0h1c1.4,0,2.1,0.2,2.1,0.6      v0.1c0,0.3-1,0.5-2.9,0.8c3.1,9.1,5.4,16,7,20.6l0,0.4c0,0,1.5-4.3,4.4-12.9l-3.1-8.4l0,0.3c-1.8-0.3-2.7-0.6-2.7-1v0      c0-0.5,0.5-0.7,1.5-0.7c0.4,0,0.7,0,1.1,0.1c1,0,2,0,3,0c1.1,0,2.3,0,3.4,0c0.5-0.1,0.9-0.1,1.2-0.1c1.1,0,1.7,0.2,1.8,0.5v0.1      c0,0.5-0.9,0.9-2.8,1c0.3,1.1,2.1,6.1,5.3,15.2c1,3.2,1.6,4.9,1.7,5.2l2.5,1.4c-0.5,1.5-1,2.9-1.4,4.1      C263.7,67.2,266.2,64.7,267.8,61.8z M256.4,70.9c-0.7-1.6-1.7-4.3-3.1-8.1c-1.3-3.5-2.3-6.3-3.1-8.1c-0.5,1.6-1.5,4.3-3,8.3      c-1.1,3.4-2.1,6.2-2.8,8.3c1.9,0.6,3.8,1,5.7,1C252.3,72.3,254.3,71.8,256.4,70.9z M241.3,70c-2.9-8-6-16.2-9.3-24.6      c-1.1,2.3-1.6,4.8-1.6,7.5c0,0.5,0,1,0,1.5C230.9,61.7,234.5,66.9,241.3,70z"
   id="path1222" />
				<path
   class="st13"
   d="M270.4,151.3C270.4,151.3,270.4,151.3,270.4,151.3c-0.7-0.2-2.3-0.4-5-0.7c-2.7-0.3-5.8-0.3-9.2,0.1      c-0.1-0.2-0.2-0.4-0.3-0.6c-0.1-0.2-0.1-0.3-0.2-0.5c-0.4-1-0.9-2-1.3-3c3.7-1.6,6.5-3.3,8.4-5c1.8-1.7,2.9-2.7,3-3.1      C268.8,142.1,270.3,146.4,270.4,151.3z"
   id="path1224" />
				<path
   class="st12"
   d="M270.1,52.8c0,0.4,0,0.8-0.1,1.2c-0.2,2.9-0.9,5.5-2.2,7.8c-1.6,3-4.1,5.4-7.5,7.4      c0.4-1.2,0.8-2.5,1.4-4.1c0.5-1.5,1.1-3.2,1.8-5c1.7-4.7,2.8-7.6,3.3-9c0.6-1.8,0.9-3.7,0.9-5.7c0-0.5,0-1,0-1.5h0v0      C269.3,46.7,270.1,49.6,270.1,52.8z"
   id="path1226" />
				<path
   class="st6"
   d="M269.9,443.5v10.3c0,1.8-0.4,3.5-1,5c-0.7,1.5-1.6,2.9-2.8,4c-1.2,1.2-2.5,2.1-4,2.7c-1.5,0.6-3.1,1-4.9,1      h-14.6c-1.8,0-3.5-0.3-5-1c-1.5-0.7-2.9-1.6-4-2.7c-1.1-1.2-2-2.5-2.7-4c-0.6-1.5-1-3.2-1-5V439c0-1.8,0.3-3.4,1-5      c0.7-1.6,1.6-2.9,2.7-4.1c1.1-1.2,2.5-2.1,4-2.7c1.5-0.6,3.2-1,5-1h8.9c0.8,0.2,1.7,0.4,2.6,0.8c1,0.4,1.9,0.8,2.8,1.4      c0.9,0.6,1.7,1.3,2.5,2.1c0.8,0.8,1.4,1.7,1.8,2.6c0.3,0.5,0.5,1,0.6,1.4c0.2,0.4,0.4,1.4,0.6,2.9c0.1,0.8,0.2,1.5,0.3,2.1      c0.1,0.6,0.4,1.1,0.7,1.4c0.3,0.2,0.7,0.4,1.2,0.4c0.5,0.1,1.1,0.1,1.6,0.1c0.6,0,1.1,0.1,1.6,0.1c0.5,0.1,0.8,0.1,1.1,0.2      l0.5,0.5l0.3,0.7L269.9,443.5z M259.5,453.6c0-0.7-0.2-1.3-0.7-1.7c-0.5-0.4-1-0.6-1.7-0.6h-14.2c-0.7,0-1.3,0.2-1.8,0.6      c-0.5,0.4-0.7,1-0.7,1.7c0,0.6,0.2,1.2,0.7,1.7c0.5,0.5,1.1,0.8,1.8,0.8h14.2c0.7,0,1.3-0.3,1.7-0.8      C259.2,454.8,259.5,454.3,259.5,453.6z M252.3,439.1c0-0.7-0.2-1.3-0.7-1.7c-0.4-0.5-1-0.7-1.8-0.7h-7c-0.7,0-1.3,0.2-1.8,0.7      c-0.5,0.5-0.7,1.1-0.7,1.7c0,0.7,0.2,1.3,0.7,1.7c0.5,0.4,1.1,0.7,1.8,0.7h7c0.7,0,1.3-0.2,1.8-0.7      C252.1,440.4,252.3,439.8,252.3,439.1z"
   id="path1228" />
				<path
   class="st13"
   d="M265.9,153.8c2.4,0.4,3.8,0.7,4.2,0.9c-1.1,5.9-4,10.5-8.8,13.7c-0.1-0.7-0.5-2.4-1.1-5      c-0.6-2.6-1.6-5.8-2.9-9.6C260.7,153.5,263.5,153.4,265.9,153.8z"
   id="path1230" />
				<path
   class="st12"
   d="M262.4,38.2h-0.2c-1.1,0-2,0.5-2.6,1.5c-0.4,0.6-0.6,1.3-0.6,1.9c0,0.5,0.1,1,0.3,1.6      c2.1,5.7,3.2,8.6,3.2,8.7c-0.1,0.8-0.6,2.7-1.6,6c-0.6,2.1-1.2,4.1-1.7,5.9c-0.1-0.2-0.7-1.9-1.7-5.2c-3.2-9.1-5-14.2-5.3-15.2      c1.9-0.2,2.8-0.5,2.8-1v-0.1c-0.1-0.4-0.7-0.5-1.8-0.5c-0.3,0-0.7,0-1.2,0.1c-1.2,0-2.3,0-3.4,0c-1.1,0-2.1,0-3,0      c-0.4-0.1-0.7-0.1-1.1-0.1c-1,0-1.5,0.2-1.5,0.7v0l-2.6,0.1c0-0.4-0.7-0.6-2.1-0.6h-1c-1,0-2.4,0-4.1,0c0.9-1.3,1.9-2.5,2.9-3.5      c3.2-3,7.1-4.7,11.9-5.1c0.5,0,1.1,0,1.6,0C254.5,33.2,258.8,34.8,262.4,38.2z"
   id="path1232" />
				<path
   class="st13"
   d="M263.5,136.1c-0.2,0.4-1.1,1.3-2.8,2.9s-4.4,3.1-8,4.5c-1.7-3.1-3.3-5.7-4.8-7.9c-1.5-2.2-2.4-3.5-2.8-4v0      c1.5-0.3,3.1-0.5,4.8-0.5C255.1,131,259.7,132.7,263.5,136.1z"
   id="path1234" />
				<path
   class="st6"
   d="M260.8,229.4v6.6h-3.4c-2,0-3.3,0.4-3.7,1.3c-0.2,0.4-0.3,0.6-0.3,0.7c-0.1,0.3-0.2,1-0.2,2.2v4.2h7.4      l-1,7.4h-6.4v19.1h-7.7v-19.1h-6.4v-7.4h6.4v-5.7c0-2.1,0.5-3.9,1.4-5.4c1.6-2.8,4.4-4.2,8.3-4.2      C257.1,229.1,259,229.2,260.8,229.4z"
   id="path1236" />
				<path
   class="st16"
   d="M258.8,451.9c0.4,0.4,0.7,1,0.7,1.7c0,0.6-0.2,1.2-0.7,1.7c-0.5,0.5-1,0.8-1.7,0.8h-14.2      c-0.7,0-1.3-0.3-1.8-0.8c-0.5-0.5-0.7-1.1-0.7-1.7c0-0.7,0.2-1.3,0.7-1.7c0.5-0.4,1.1-0.6,1.8-0.6h14.2      C257.8,451.3,258.3,451.5,258.8,451.9z"
   id="path1238" />
				<path
   class="st13"
   d="M256.8,164.7c0.7,2.8,1.1,4.7,1.2,5.7c-2.5,1.1-5.2,1.6-8,1.6c-4.8,0-8.9-1.4-12.6-4.3      c0.1-0.3,0.7-1.3,1.7-2.8c1.1-1.5,2.8-3.2,5.1-5.1c2.3-1.9,5.4-3.5,9.3-4.9l0,0c0,0,0.1,0,0.1,0      C255,158.6,256.1,161.9,256.8,164.7z"
   id="path1240" />
				<path
   class="st12"
   d="M253.3,62.9c1.4,3.7,2.4,6.4,3.1,8.1c-2,0.9-4.1,1.3-6.3,1.3c-1.8,0-3.7-0.3-5.7-1      c0.7-2.1,1.6-4.8,2.8-8.3c1.5-4,2.4-6.7,3-8.3C251,56.6,252,59.3,253.3,62.9z"
   id="path1242" />
				<path
   class="st13"
   d="M252.1,151.4c-0.1,0.1-0.3,0.1-0.4,0.1c-0.1,0.1-0.3,0.1-0.4,0.1c-3.5,1.2-6.5,2.8-8.9,4.8      c-2.4,2-4.3,3.9-5.6,5.6c-1.3,1.7-2,2.8-2.2,3.1c-3.5-3.9-5.3-8.4-5.3-13.7c0-0.2,0-0.4,0-0.6c0.6,0.1,3,0,7.1-0.3      c4.1-0.3,8.7-1.2,14.1-2.6C251.1,149.1,251.6,150.3,252.1,151.4z"
   id="path1244" />
				<path
   class="st16"
   d="M251.6,437.4c0.5,0.5,0.7,1.1,0.7,1.7c0,0.7-0.2,1.3-0.7,1.7c-0.4,0.4-1,0.7-1.8,0.7h-7      c-0.7,0-1.3-0.2-1.8-0.7c-0.5-0.4-0.7-1-0.7-1.7c0-0.7,0.2-1.3,0.7-1.7c0.5-0.5,1.1-0.7,1.8-0.7h7      C250.6,436.7,251.2,436.9,251.6,437.4z"
   id="path1246" />
				<path
   class="st12"
   d="M245.7,43l3.1,8.4c-2.9,8.6-4.4,12.9-4.4,12.9l0-0.4c-1.6-4.6-3.9-11.5-7-20.6c1.9-0.3,2.9-0.5,2.9-0.8      v-0.1l2.6-0.1c0,0.4,0.9,0.7,2.7,1L245.7,43z"
   id="path1248" />
				<path
   class="st18"
   d="M247.2,344.2c0.5,1.2,0.7,2.4,0.7,3.8c0,1.3-0.3,2.6-0.7,3.8c-0.5,1.2-1.2,2.2-2.1,3.1      c-0.9,0.9-1.9,1.5-3.1,2c-1.2,0.5-2.5,0.7-3.8,0.7c-1.3,0-2.6-0.3-3.8-0.7c-1.2-0.5-2.2-1.2-3.1-2c-0.9-0.9-1.6-1.9-2.1-3.1      c-0.5-1.2-0.7-2.4-0.7-3.8c0-1.3,0.3-2.6,0.7-3.8c0.5-1.2,1.2-2.2,2.1-3.1c0.9-0.9,1.9-1.6,3.1-2.1c1.2-0.5,2.4-0.7,3.8-0.7      c1.3,0,2.6,0.3,3.8,0.7c1.2,0.5,2.2,1.2,3.1,2.1C246.1,341.9,246.7,343,247.2,344.2z"
   id="path1250" />
				<path
   class="st13"
   d="M243.9,136.9c1.5,2.2,3.1,4.8,4.9,7.9c-4.8,1.2-9,1.9-12.6,2.2c-3.5,0.3-5.7,0.4-6.4,0.3c0,0-0.1,0-0.1,0      c1.6-6.6,5.4-11.4,11.4-14.3C241.6,133.4,242.5,134.7,243.9,136.9z"
   id="path1252" />
				<path
   class="st12"
   d="M232,45.4c3.2,8.4,6.3,16.6,9.3,24.6c-6.8-3.1-10.4-8.4-10.8-15.7c0-0.5,0-1,0-1.5      C230.4,50.2,230.9,47.7,232,45.4z"
   id="path1254" />
				<path
   class="st19"
   d="M186.2,38.1c2,4.8,3,9.8,3,15.1c0,5.3-1,10.3-3,15.1c-2,4.8-4.9,9.1-8.6,12.9c-3.8,3.8-8.1,6.6-12.9,8.6      c-4.8,2-9.8,3-15.1,3c-5.3,0-10.3-1-15.1-3c-4.8-2-9.1-4.9-12.9-8.6c-3.8-3.8-6.6-8.1-8.6-12.9c-2-4.8-3-9.8-3-15.1      c0-5.3,1-10.3,3-15.1c2-4.8,4.9-9.1,8.6-12.9c3.8-3.8,8-6.6,12.9-8.6c4.8-2,9.9-3,15.1-3c5.3,0,10.3,1,15.1,3      c4.8,2,9.1,4.9,12.9,8.6C181.3,29,184.2,33.3,186.2,38.1z M153.1,63l18.7-19.7l-16.9,9.1l-8.9-9.1L127.3,63l17-9.3L153.1,63z"
   id="path1256" />
				<path
   class="st20"
   d="M186.2,136.5c2,4.8,3,9.8,3,15.1c0,5.3-1,10.3-3,15.1c-2,4.8-4.9,9.1-8.6,12.9c-3.8,3.8-8.1,6.6-12.9,8.6      c-4.8,2-9.8,3-15.1,3c-5.3,0-10.3-1-15.1-3c-4.8-2-9.1-4.9-12.9-8.6c-3.8-3.8-6.6-8.1-8.6-12.9c-2-4.8-3-9.8-3-15.1      c0-5.3,1-10.3,3-15.1c2-4.8,4.9-9.1,8.6-12.9c3.8-3.8,8-6.6,12.9-8.6c4.8-2,9.9-3,15.1-3c5.3,0,10.3,1,15.1,3      c4.8,2,9.1,4.9,12.9,8.6C181.3,127.4,184.2,131.7,186.2,136.5z M168.5,169.3v-14.1c0-3.8-0.9-6.7-2.6-8.4      c-1.8-1.8-4-2.7-6.7-2.7c-2.2,0-3.9,0.5-5,1.4c-1.1,0.9-1.9,1.8-2.5,2.7v-3.5h-8.2v13.2v11.4h8.2v-13.8c0-0.3,0-0.7,0-1.1      s0.1-0.7,0.2-0.9c0.3-0.8,0.8-1.4,1.5-2.1c0.7-0.6,1.6-0.9,2.8-0.9c1.5,0,2.5,0.5,3.1,1.6c0.6,1.1,0.9,2.4,0.9,4.1v13.1H168.5z       M139,169.3v-24.7h-8.3v24.7H139z M138.3,139.9c0.9-0.8,1.3-1.8,1.3-3c-0.1-1.3-0.6-2.3-1.4-3.1c-0.8-0.8-1.9-1.2-3.2-1.2      c-1.4,0-2.6,0.4-3.4,1.2c-0.9,0.8-1.3,1.8-1.3,3.1c0,1.2,0.4,2.2,1.2,3c0.8,0.8,1.9,1.2,3.4,1.2      C136.3,141.1,137.4,140.8,138.3,139.9z"
   id="path1258" />
				<path
   class="st21"
   d="M186.2,234.9c2,4.8,3,9.8,3,15.1s-1,10.3-3,15.1c-2,4.8-4.9,9.1-8.6,12.9c-3.8,3.8-8.1,6.6-12.9,8.6      c-4.8,2-9.8,3-15.1,3c-5.3,0-10.3-1-15.1-3c-4.8-2-9.1-4.9-12.9-8.6c-3.8-3.8-6.6-8-8.6-12.9c-2-4.8-3-9.8-3-15.1s1-10.3,3-15.1      c2-4.8,4.9-9.1,8.6-12.9c3.8-3.8,8-6.6,12.9-8.6c4.8-2,9.9-3,15.1-3c5.3,0,10.3,1,15.1,3c4.8,2,9.1,4.9,12.9,8.6      C181.3,225.8,184.2,230.1,186.2,234.9z M169.5,234.5c0-0.4-0.1-0.8-0.4-1c-0.3-0.3-0.6-0.4-0.9-0.4c-0.2,0-12.7,4.7-37.7,14      c-0.6,0.2-1,0.7-1,1.3c0.1,0.6,0.4,1,1,1.2l9.1,2.8l3.7,11.1c0.2,0.6,0.7,0.9,1.4,0.9c0.3,0,0.6-0.1,0.9-0.4l5.2-4.9l9.3,6.8      c0.3,0.2,0.7,0.4,1.1,0.4c1,0,1.7-0.5,1.9-1.6L169.5,234.5z"
   id="path1260" />
				<path
   class="st22"
   d="M186.2,333.3c2,4.8,3,9.9,3,15.1c0,5.3-1,10.3-3,15.1c-2,4.8-4.9,9.1-8.6,12.9c-3.8,3.8-8.1,6.6-12.9,8.6      c-4.8,2-9.8,3-15.1,3c-5.3,0-10.3-1-15.1-3c-4.8-2-9.1-4.9-12.9-8.6c-3.8-3.8-6.6-8.1-8.6-12.9c-2-4.8-3-9.9-3-15.1      c0-5.3,1-10.3,3-15.1c2-4.8,4.9-9.1,8.6-12.9c3.8-3.8,8-6.6,12.9-8.6c4.8-2,9.9-3,15.1-3c5.3,0,10.3,1,15.1,3      c4.8,2,9.1,4.9,12.9,8.6C181.3,324.2,184.2,328.5,186.2,333.3z M170.2,352.2v-1.6c0-0.6,0-1.2-0.2-1.9c-1-5.2-4.1-7.8-9.3-7.8      c-1.4,0-2.7,0.3-4,0.8c-3.6,1.7-5.4,4.5-5.4,8.6v1.5c0,1.9,0.5,3.6,1.4,5.1c2,2.7,4.6,4.1,7.9,4.1c2.3,0,4.3-0.5,5.7-1.5      c2.3-1.8,3.4-3.3,3.4-4.4c0-0.2-0.1-0.4-0.2-0.4v-2.5h0.3C170.1,352.4,170.2,352.3,170.2,352.2z M166.1,338.8v-2.3      c0-0.1-0.1-0.2-0.2-0.2H155c-0.1,0-0.2,0.1-0.2,0.2v2.3c0,0.2,0.1,0.2,0.2,0.2h10.9C166,339,166.1,338.9,166.1,338.8z       M150,352.8v-0.1c0-3-1.3-4.9-3.8-6c2-1.2,3-2.9,3-5.2c0-0.3,0-0.8-0.1-1.4c-0.9-3.5-3.3-5.2-7.4-5.2h-12.6      c-0.1,0-0.2,0.1-0.2,0.2v25.2c0,0.1,0.1,0.2,0.2,0.2h9.5c2.7,0,4.7-0.2,6-0.5C148.3,358.6,150,356.2,150,352.8z"
   id="path1262" />
				<path
   class="st23"
   d="M186.2,431.7c2,4.8,3,9.8,3,15.1c0,5.3-1,10.3-3,15.1c-2,4.8-4.9,9.1-8.6,12.9c-3.8,3.8-8.1,6.6-12.9,8.6      c-4.8,2-9.8,3-15.1,3c-5.3,0-10.3-1-15.1-3c-4.8-2-9.1-4.9-12.9-8.6c-3.8-3.8-6.6-8.1-8.6-12.9c-2-4.8-3-9.9-3-15.1      c0-5.3,1-10.3,3-15.1c2-4.8,4.9-9.1,8.6-12.9c3.8-3.8,8-6.6,12.9-8.6c4.8-2,9.9-3,15.1-3c5.3,0,10.3,1,15.1,3      c4.8,2,9.1,4.9,12.9,8.6C181.3,422.6,184.2,426.9,186.2,431.7z M169.1,445.9c0-0.1,0-0.3-0.1-0.4c0-0.2-0.1-0.4-0.1-0.7      c0-3.2-0.8-6.2-2.3-8.9c-1.6-2.7-3.7-4.9-6.4-6.7c-2.7-1.7-5.7-2.7-8.9-2.9c-0.1,0-0.3,0-0.5,0c-0.2,0-0.5,0-0.7,0      c-0.7,0-1,0.4-1,1.2c0,0.4,0.1,0.6,0.3,0.7c0.2,0.1,0.5,0.2,0.8,0.2c0.3,0,0.6,0.1,0.7,0.2c5.1,0.7,8.8,2.4,11.3,5      c2.5,2.6,4.1,6.4,4.8,11.4l-0.1,0.8c0,0.3,0,0.6,0.1,0.9c0.1,0.4,0.4,0.5,0.9,0.5c0.6,0,0.9-0.2,1-0.6      C169.1,446.3,169.1,446.1,169.1,445.9z M166.1,465.2c2.3-1.8,3.4-3.7,3.4-5.5c0-1.2-0.8-2.4-2.4-3.6c-1.4-1.1-3-2.1-4.6-3      c-1.1-1-2.3-1.5-3.4-1.5c-0.1,0-0.4,0-1.1,0.1c-0.6,0-1.4,0.8-2.4,2.4c-0.6,0.9-1.4,1.3-2.4,1.3c-0.5,0-1.1-0.1-1.8-0.4      c-4.5-1.8-7.8-5-9.8-9.6c-0.4-0.8-0.6-1.5-0.6-2.2c0-0.2,0-0.6,0.1-1.1c0.1-0.5,0.6-1.1,1.6-1.7c0.6-0.4,1.1-0.9,1.5-1.4      c0.4-0.5,0.6-1.2,0.6-2.1c-0.1-0.7-0.6-1.8-1.5-3.2c-3-4.5-5.3-6.8-7.1-6.8c-0.4,0-0.9,0.1-1.3,0.2c-3.7,1.4-5.5,3.6-5.5,6.8      c0,1,0.2,2.1,0.7,3.3c5.8,13.8,15.5,23.5,29.3,29.3c0.6,0.4,1.2,0.6,1.9,0.6C163,466.9,164.5,466.3,166.1,465.2z M164.2,443.5      c0-0.2,0-0.3,0-0.4c0-2.9-1.1-5.5-3.2-7.8c-2.1-2.3-4.8-3.7-7.8-4.2c-0.4-0.1-0.8-0.2-1.3-0.2c-0.1,0-0.3,0-0.6,0.1      c-0.3,0.1-0.5,0.5-0.6,1.3c0,0.6,0.5,1,1.5,1c3.3,0.7,5.7,1.8,7.1,3.2c1.4,1.5,2.3,3.7,2.8,6.7v0.7c0,0.3,0.1,0.6,0.2,0.9      c0.1,0.3,0.5,0.5,1.2,0.5c0.5-0.2,0.8-0.6,0.8-1.3V443.5z M159.4,443c0.1-0.3,0.1-0.7,0.1-1c0-1.4-0.6-2.7-1.9-4s-2.6-2-4-2      c-0.3,0-0.6,0-0.9,0c-0.5,0.1-0.8,0.5-0.8,1.1c0,0.5,0.4,0.9,1.2,1c2.6,0.4,4,1.9,4.2,4.5c0.2,0.7,0.6,1,1.2,1      C159.1,443.6,159.4,443.4,159.4,443z"
   id="path1264" />
				<polygon
   class="st6"
   points="171.8,43.3 153.1,63 144.3,53.8 127.3,63 146,43.3 154.9,52.5     "
   id="polygon1266" />
				<path
   class="st6"
   d="M170.2,350.6v1.6c0,0.1-0.1,0.2-0.2,0.2h-0.3h-13.3c0,2.3,1.2,3.8,3.5,4.5c0.5,0.1,0.8,0.2,1.1,0.2      c1.7,0,3-0.7,3.9-2.2h4.8c0.1,0,0.2,0.1,0.2,0.4c0,1.2-1.1,2.6-3.4,4.4c-1.5,1-3.4,1.5-5.7,1.5c-3.3,0-5.9-1.4-7.9-4.1      c-0.9-1.5-1.4-3.2-1.4-5.1v-1.5c0-4.1,1.8-7,5.4-8.6c1.3-0.5,2.6-0.8,4-0.8c5.2,0,8.3,2.6,9.3,7.8      C170.1,349.4,170.2,350,170.2,350.6z M156.6,349h8.4c0-1.7-0.9-3-2.9-3.7c-0.5-0.1-1-0.2-1.4-0.2c-2,0-3.4,0.9-4,2.8      C156.7,348.5,156.6,348.8,156.6,349z"
   id="path1268" />
				<path
   class="st22"
   d="M169.7,352.4v2.5h-4.8c-0.9,1.5-2.2,2.2-3.9,2.2c-0.3,0-0.7-0.1-1.1-0.2c-2.3-0.6-3.5-2.1-3.5-4.5H169.7z"
   id="path1270" />
				<path
   class="st6"
   d="M169.1,233.5c0.3,0.3,0.4,0.6,0.4,1l-6.4,30.4c-0.2,1-0.9,1.6-1.9,1.6c-0.4,0-0.8-0.1-1.1-0.4l-9.3-6.8      l-5.2,4.9c-0.3,0.2-0.6,0.4-0.9,0.4c-0.7,0-1.2-0.3-1.4-0.9l-3.7-11.1l-9.1-2.8c-0.6-0.2-0.9-0.6-1-1.2c0-0.6,0.3-1.1,1-1.3      c25-9.4,37.6-14,37.7-14C168.5,233.1,168.8,233.2,169.1,233.5z M162.3,239.4c0-0.1,0-0.1,0-0.1c0-0.2-0.2-0.4-0.5-0.4      c-0.1,0-6.8,4.2-20,12.7l2.8,9.2l0.6-5.8C156.6,244.6,162.3,239.4,162.3,239.4z"
   id="path1272" />
				<path
   class="st6"
   d="M169.1,445.4c0,0.2,0.1,0.3,0.1,0.4c0,0.2,0,0.4-0.1,0.6c-0.1,0.4-0.4,0.6-1,0.6c-0.5,0-0.8-0.2-0.9-0.5      c-0.1-0.4-0.1-0.7-0.1-0.9l0.1-0.8c-0.7-5-2.3-8.9-4.8-11.4c-2.5-2.6-6.3-4.2-11.3-5c-0.2-0.1-0.4-0.2-0.7-0.2      c-0.3,0-0.6-0.1-0.8-0.2c-0.2-0.1-0.3-0.4-0.3-0.7c0-0.8,0.3-1.2,1-1.2c0.3,0,0.5,0,0.7,0c0.2,0,0.4,0,0.5,0      c3.2,0.2,6.2,1.2,8.9,2.9c2.7,1.8,4.8,4,6.4,6.7c1.6,2.7,2.3,5.7,2.3,8.9C169,445,169,445.3,169.1,445.4z"
   id="path1274" />
				<path
   class="st6"
   d="M169.5,459.6c0,1.9-1.1,3.7-3.4,5.5c-1.5,1.1-3.1,1.7-4.7,1.7c-0.7,0-1.3-0.2-1.9-0.6      c-13.8-5.7-23.5-15.5-29.3-29.3c-0.4-1.2-0.7-2.3-0.7-3.3c0-3.2,1.8-5.5,5.5-6.8c0.4-0.2,0.9-0.2,1.3-0.2c1.8,0,4.1,2.3,7.1,6.8      c0.9,1.4,1.4,2.5,1.5,3.2c0,0.9-0.2,1.6-0.6,2.1c-0.4,0.5-0.9,1-1.5,1.4c-1,0.6-1.6,1.2-1.6,1.7c-0.1,0.5-0.1,0.9-0.1,1.1      c0,0.7,0.2,1.4,0.6,2.2c2,4.5,5.3,7.7,9.8,9.6c0.6,0.3,1.2,0.4,1.8,0.4c1,0,1.8-0.4,2.4-1.3c1-1.5,1.8-2.3,2.4-2.4      c0.6,0,1-0.1,1.1-0.1c1.1,0,2.3,0.5,3.4,1.5c1.7,0.9,3.2,1.9,4.6,3C168.7,457.3,169.5,458.5,169.5,459.6z"
   id="path1276" />
				<path
   class="st6"
   d="M168.5,155.2v14.1h-8.3v-13.1c0-1.6-0.3-3-0.9-4.1c-0.6-1.1-1.6-1.6-3.1-1.6c-1.2,0-2.1,0.3-2.8,0.9      c-0.7,0.6-1.2,1.3-1.5,2.1c-0.1,0.3-0.2,0.6-0.2,0.9s0,0.7,0,1.1v13.8h-8.2v-11.4v-13.2h8.2v3.5c-0.1,0-0.1,0-0.1,0.1h0.1v-0.1      c0.6-0.9,1.4-1.8,2.5-2.7c1.1-0.9,2.7-1.4,5-1.4c2.7,0,5,0.9,6.7,2.7C167.7,148.5,168.5,151.3,168.5,155.2z"
   id="path1278" />
				<path
   class="st6"
   d="M166.1,336.4v2.3c0,0.2-0.1,0.2-0.2,0.2H155c-0.1,0-0.2-0.1-0.2-0.2v-2.3c0-0.1,0.1-0.2,0.2-0.2h10.9      C166,336.3,166.1,336.3,166.1,336.4z"
   id="path1280" />
				<path
   class="st22"
   d="M165,349h-8.4c0-0.2,0.1-0.5,0.2-1c0.6-1.9,1.9-2.8,4-2.8c0.4,0,0.9,0,1.4,0.2      C164.1,346,165,347.3,165,349z"
   id="path1282" />
				<path
   class="st6"
   d="M164.2,443.1c0,0.1,0,0.2,0,0.4v0.4c0,0.7-0.3,1.1-0.8,1.3c-0.7,0-1-0.2-1.2-0.5c-0.1-0.3-0.2-0.6-0.2-0.9      v-0.7c-0.4-3-1.4-5.2-2.8-6.7c-1.4-1.5-3.8-2.5-7.1-3.2c-1,0-1.5-0.3-1.5-1c0.1-0.8,0.3-1.2,0.6-1.3c0.3-0.1,0.5-0.1,0.6-0.1      c0.5,0,0.9,0.1,1.3,0.2c3.1,0.5,5.7,2,7.8,4.2C163.1,437.6,164.2,440.2,164.2,443.1z"
   id="path1284" />
				<path
   class="st21"
   d="M162.3,239.2c0,0,0,0.1,0,0.1c0,0.1-5.7,5.3-17.1,15.6l-0.6,5.8l-2.8-9.2c13.3-8.5,19.9-12.7,20-12.7      C162.2,238.9,162.3,239,162.3,239.2z"
   id="path1286" />
				<path
   class="st6"
   d="M159.6,442c0,0.4,0,0.7-0.1,1c-0.1,0.3-0.4,0.5-0.9,0.6c-0.7,0-1.1-0.4-1.2-1c-0.1-2.6-1.5-4.1-4.2-4.5      c-0.8-0.1-1.2-0.5-1.2-1c0-0.6,0.3-1,0.8-1.1c0.3,0,0.6,0,0.9,0c1.4,0,2.8,0.7,4,2S159.6,440.6,159.6,442z"
   id="path1288" />
				<path
   d="M151.8,148.1v0.1h-0.1C151.6,148.2,151.7,148.1,151.8,148.1z"
   id="path1290" />
				<path
   class="st6"
   d="M150,352.7v0.1c0,3.4-1.8,5.8-5.2,7.2c-1.3,0.3-3.3,0.5-6,0.5h-9.5c-0.1,0-0.2-0.1-0.2-0.2V335      c0-0.1,0.1-0.2,0.2-0.2h12.6c4,0,6.5,1.8,7.4,5.2c0.1,0.6,0.1,1.1,0.1,1.4c0,2.3-1,4-3,5.2C148.8,347.7,150,349.7,150,352.7z       M144.6,352.6v-0.4c0-2-1.4-3-4.1-3h-6.2v6.6h6.7C143.3,355.9,144.6,354.8,144.6,352.6z M144,342.1L144,342.1      c0-1.9-1.2-2.8-3.7-2.8h-6.1v5.6h5c2.7,0,4.3-0.5,4.6-1.5C144,342.8,144,342.4,144,342.1z"
   id="path1292" />
				<path
   class="st22"
   d="M144.6,352.2v0.4c0,2.2-1.2,3.3-3.6,3.3h-6.7v-6.6h6.2C143.2,349.2,144.6,350.2,144.6,352.2z"
   id="path1294" />
				<path
   class="st22"
   d="M144,342L144,342c0,0.4-0.1,0.8-0.2,1.5c-0.4,1-1.9,1.5-4.6,1.5h-5v-5.6h6.1      C142.8,339.4,144,340.3,144,342z"
   id="path1296" />
				<rect
   x="130.7"
   y="144.6"
   class="st6"
   width="8.3"
   height="24.7"
   id="rect1298" />
				<path
   class="st6"
   d="M139.6,137c0,1.2-0.4,2.2-1.3,3c-0.9,0.8-2,1.2-3.4,1.2c-1.4,0-2.6-0.4-3.4-1.2c-0.8-0.8-1.2-1.8-1.2-3      c0-1.3,0.4-2.3,1.3-3.1c0.9-0.8,2-1.2,3.4-1.2c1.3,0,2.3,0.4,3.2,1.2C139,134.7,139.5,135.7,139.6,137z"
   id="path1300" />
				<path
   class="st24"
   d="M85.8,38.1c2,4.8,3,9.8,3,15.1c0,5.3-1,10.3-3,15.1c-2,4.8-4.9,9.1-8.6,12.9c-3.8,3.8-8,6.6-12.8,8.6      c-4.8,2-9.8,3-15.1,3c-5.3,0-10.3-1-15.1-3c-4.8-2-9.1-4.9-12.8-8.6c-3.8-3.8-6.6-8.1-8.6-12.9c-2-4.8-3-9.8-3-15.1      c0-5.3,1-10.3,3-15.1c2-4.8,4.9-9.1,8.6-12.9c3.8-3.8,8-6.6,12.8-8.6c4.8-2,9.9-3,15.1-3c5.3,0,10.3,1,15.1,3      c4.8,2,9.1,4.9,12.8,8.6C80.9,29,83.8,33.3,85.8,38.1z M68.1,59.1V47.5c0-0.8-0.3-1.4-0.8-2c-0.5-0.5-1.2-0.8-2-0.8      c-0.8,0-1.5,0.3-2,0.8c-0.5,0.5-0.8,1.2-0.8,2v11.7c0,0.8,0.3,1.5,0.8,2c0.5,0.5,1.2,0.8,2,0.8c0.8,0,1.4-0.3,2-0.8      C67.9,60.6,68.1,60,68.1,59.1z M36.6,44.3h25c0-2.1-0.6-4.1-1.8-5.9c-1.2-1.8-2.7-3.1-4.6-4.1l1.8-3.3l0-0.2      c0-0.3-0.1-0.4-0.4-0.4c-0.2,0-0.9,1.1-2.2,3.4c-1.8-0.8-3.7-1.2-5.5-1.2c-1.9,0-3.7,0.4-5.4,1.2c-1.4-2.3-2.1-3.4-2.2-3.4      c-0.3,0-0.4,0.1-0.4,0.3c0,0.1,0.7,1.2,2,3.4c-2,1-3.5,2.4-4.7,4.2C37.2,40.1,36.6,42.1,36.6,44.3z M61.5,63.3V45.3H36.7v18.1      c0,0.8,0.3,1.5,0.9,2.1c0.6,0.6,1.3,0.9,2.1,0.9h2v6c0,0.8,0.3,1.5,0.8,2.1c0.5,0.5,1.2,0.8,1.9,0.8s1.4-0.3,1.9-0.8      c0.5-0.6,0.8-1.3,0.8-2.1v-6H51v6c0,0.8,0.3,1.5,0.8,2.1c0.5,0.5,1.2,0.8,2,0.8c0.8,0,1.4-0.3,2-0.8c0.6-0.6,0.8-1.3,0.8-2.1v-6      h1.9c0.8,0,1.5-0.3,2.1-0.9C61.2,64.8,61.5,64.1,61.5,63.3z M35.6,59.1V47.5c0-0.8-0.3-1.4-0.8-2c-0.5-0.5-1.2-0.8-2-0.8      c-0.8,0-1.4,0.3-2,0.8c-0.6,0.5-0.8,1.2-0.8,2v11.7c0,0.8,0.3,1.5,0.8,2c0.5,0.5,1.2,0.8,2,0.8c0.8,0,1.5-0.3,2-0.8      C35.3,60.6,35.6,60,35.6,59.1z"
   id="path1302" />
				<path
   class="st25"
   d="M85.8,136.5c2,4.8,3,9.8,3,15.1c0,5.3-1,10.3-3,15.1c-2,4.8-4.9,9.1-8.6,12.9c-3.8,3.8-8,6.6-12.8,8.6      c-4.8,2-9.8,3-15.1,3c-5.3,0-10.3-1-15.1-3c-4.8-2-9.1-4.9-12.8-8.6c-3.8-3.8-6.6-8.1-8.6-12.9c-2-4.8-3-9.8-3-15.1      c0-5.3,1-10.3,3-15.1c2-4.8,4.9-9.1,8.6-12.9c3.8-3.8,8-6.6,12.8-8.6c4.8-2,9.9-3,15.1-3c5.3,0,10.3,1,15.1,3      c4.8,2,9.1,4.9,12.8,8.6C80.9,127.4,83.8,131.7,85.8,136.5z M69.2,151.6c0-1.4-0.1-2.6-0.1-3.6s-0.1-2.1-0.2-3.2s-0.3-2-0.5-2.9      c-0.2-0.8-0.7-1.6-1.3-2.2c-0.6-0.6-1.4-1.1-2.2-1.3c-0.8-0.2-2.1-0.4-3.8-0.5c-1.7-0.1-3.4-0.2-5.3-0.2c-1.8-0.1-4-0.1-6.7-0.2      c-2.6,0.1-4.9,0.1-6.7,0.1c-1.8,0-3.6,0.1-5.3,0.2c-1.7,0.1-2.9,0.3-3.8,0.5c-0.9,0.2-1.6,0.7-2.2,1.3c-0.6,0.6-1.1,1.4-1.3,2.2      c-0.2,0.8-0.4,1.8-0.5,2.9c-0.1,1.1-0.2,2.1-0.2,3.2c-0.1,1-0.1,2.3-0.1,3.7c0,1.4,0.1,2.6,0.1,3.6c0.1,1,0.1,2.1,0.2,3.2      c0.1,1.1,0.3,2,0.5,2.8c0.2,0.9,0.7,1.6,1.3,2.3c0.6,0.6,1.4,1.1,2.2,1.3c0.8,0.2,2.1,0.4,3.8,0.5c1.7,0.1,3.4,0.2,5.3,0.2      c1.8,0.1,4,0.1,6.7,0.1c2.6,0,4.8-0.1,6.7-0.1c1.8,0,3.6-0.1,5.3-0.2c1.7-0.1,2.9-0.3,3.8-0.5c0.9-0.2,1.6-0.7,2.2-1.3      c0.6-0.6,1-1.4,1.3-2.3c0.2-0.8,0.4-1.7,0.5-2.8c0.1-1.1,0.2-2.1,0.2-3.2C69.1,154.3,69.1,153.1,69.2,151.6z"
   id="path1304" />
				<path
   class="st26"
   d="M85.8,234.9c2,4.8,3,9.8,3,15.1s-1,10.3-3,15.1c-2,4.8-4.9,9.1-8.6,12.9c-3.8,3.8-8,6.6-12.8,8.6      c-4.8,2-9.8,3-15.1,3c-5.3,0-10.3-1-15.1-3c-4.8-2-9.1-4.9-12.8-8.6c-3.8-3.8-6.6-8-8.6-12.9c-2-4.8-3-9.8-3-15.1s1-10.3,3-15.1      c2-4.8,4.9-9.1,8.6-12.9c3.8-3.8,8-6.6,12.8-8.6c4.8-2,9.9-3,15.1-3c5.3,0,10.3,1,15.1,3c4.8,2,9.1,4.9,12.8,8.6      C80.9,225.8,83.8,230.1,85.8,234.9z M70.5,261.5c0.1-0.1,0.1-0.3,0.1-0.4c0-0.2-0.1-0.4-0.2-0.6c-0.1-0.2-0.3-0.3-0.5-0.3      c-1.9-0.4-3.5-1.1-4.8-2.3c-1.3-1.1-2.2-2.2-2.8-3.2c-0.6-1-0.9-1.6-1-1.8c0,0,0,0,0,0c-0.3-0.6-0.4-1.2-0.2-1.6      c0.2-0.4,0.6-0.7,1-0.9c0.5-0.2,0.9-0.4,1.4-0.5c0.2-0.1,0.5-0.2,0.6-0.2c1.4-0.6,2.2-1.3,2.2-2.1c0-0.7-0.5-1.2-1.3-1.5      c-0.3-0.1-0.6-0.2-0.9-0.2c-0.2,0-0.5,0.1-0.8,0.2c-0.7,0.3-1.3,0.5-1.8,0.5c-0.4-0.1-0.6-0.1-0.7-0.2c0-0.3,0-0.6,0-0.9l0-0.1      c0.1-1.5,0.1-3,0.1-4.6c0-1.6-0.3-2.9-0.7-4c-0.7-1.6-1.6-2.8-2.6-3.8c-1-0.9-2-1.6-3.1-2.1c-1.1-0.4-2-0.7-2.9-0.9      c-0.9-0.1-1.5-0.2-2-0.2c0,0,0,0-0.1,0c-0.2,0-0.3,0-0.4,0c-0.1,0-0.2,0-0.2,0c-0.1,0-0.1,0-0.1,0c-0.4,0-1.1,0.1-2,0.2      c-0.9,0.1-1.9,0.4-2.9,0.9c-1.1,0.4-2.1,1.1-3.1,2c-1,0.9-1.9,2.2-2.6,3.8c-0.5,1.1-0.7,2.4-0.7,4c0,1.6,0,3.1,0.1,4.6      c0,0.1,0,0.1,0,0.2c0,0.3,0,0.6,0,0.9c-0.1,0.1-0.4,0.2-0.8,0.2c-0.6,0-1.2-0.2-2-0.5c-0.2-0.1-0.4-0.2-0.7-0.2      c-0.4,0-0.9,0.1-1.3,0.4c-0.4,0.3-0.7,0.6-0.8,1c-0.1,0.3,0,0.7,0.3,1.1c0.3,0.4,0.9,0.8,1.8,1.2c0.2,0.1,0.4,0.2,0.6,0.2      c0.4,0.1,0.9,0.3,1.4,0.5c0.5,0.2,0.8,0.5,1,0.9c0.2,0.4,0.1,0.9-0.2,1.6l0,0c0,0.2-0.3,0.8-1,1.8c-0.6,1-1.5,2.1-2.8,3.2      c-1.3,1.1-2.9,1.8-4.8,2.2c-0.2,0-0.4,0.1-0.5,0.3c-0.1,0.2-0.2,0.4-0.2,0.6c0,0.1,0,0.3,0.1,0.4c0.4,1,2.3,1.8,5.7,2.3      c0,0.1,0.1,0.2,0.2,0.4c0,0.2,0.1,0.4,0.2,0.6c0,0.3,0.1,0.7,0.2,1c0,0.2,0.1,0.4,0.3,0.5s0.4,0.2,0.8,0.2c0.3,0,0.6,0,1-0.1      c0.6-0.2,1.3-0.3,2.3-0.3c0.5,0,1.1,0,1.6,0.2c1,0.2,2,0.8,3,1.6c0.8,0.6,1.6,1.1,2.5,1.6c0.9,0.5,2,0.7,3.3,0.7      c0.1,0,0.2,0,0.2,0c0.1,0,0.2,0,0.3,0c1.3,0,2.4-0.2,3.4-0.7c0.9-0.5,1.8-1,2.5-1.6c1-0.8,2-1.4,3-1.6c0.6-0.1,1.1-0.2,1.6-0.2      c0.9,0,1.7,0.1,2.3,0.3c0.4,0.1,0.7,0.1,1,0.1h0h0c0.5,0,0.8-0.3,1-0.8c0.1-0.3,0.2-0.7,0.2-1c0.1-0.2,0.1-0.3,0.2-0.6      c0.1-0.2,0.1-0.4,0.2-0.4C68.2,263.2,70.1,262.5,70.5,261.5z"
   id="path1306" />
				<path
   class="st27"
   d="M85.8,333.3c2,4.8,3,9.9,3,15.1c0,5.3-1,10.3-3,15.1c-2,4.8-4.9,9.1-8.6,12.9c-3.8,3.8-8,6.6-12.8,8.6      c-4.8,2-9.8,3-15.1,3c-5.3,0-10.3-1-15.1-3c-4.8-2-9.1-4.9-12.8-8.6c-3.8-3.8-6.6-8.1-8.6-12.9c-2-4.8-3-9.9-3-15.1      c0-5.3,1-10.3,3-15.1c2-4.8,4.9-9.1,8.6-12.9c3.8-3.8,8-6.6,12.8-8.6c4.8-2,9.9-3,15.1-3c5.3,0,10.3,1,15.1,3      c4.8,2,9.1,4.9,12.8,8.6C80.9,324.2,83.8,328.5,85.8,333.3z M70,361v-19.3H59.2V356c3.2,0.1,5.3,0.2,6.3,0.2h0.4v1.6h-6.7v3.2      H70z M57.4,361v-19.3H46.5V356c3.4,0.1,5.5,0.2,6.4,0.2h0.5l-0.2,1.6h-6.8v3.2H57.4z M44.8,340h-0.1v-4.2h-4.2v4      c2.1,0.1,3.5,0.2,4,0.2C44.7,340,44.8,340,44.8,340z M44.7,356v-14.3h-4.2V356H44.7z M38.8,356v-20.2h-4l-0.1,5.8H28V356H38.8z"
   id="path1308" />
				<path
   class="st28"
   d="M85.8,431.7c2,4.8,3,9.8,3,15.1c0,5.3-1,10.3-3,15.1c-2,4.8-4.9,9.1-8.6,12.9c-3.8,3.8-8,6.6-12.8,8.6      c-4.8,2-9.8,3-15.1,3c-5.3,0-10.3-1-15.1-3c-4.8-2-9.1-4.9-12.8-8.6c-3.8-3.8-6.6-8.1-8.6-12.9c-2-4.8-3-9.9-3-15.1      c0-5.3,1-10.3,3-15.1c2-4.8,4.9-9.1,8.6-12.9c3.8-3.8,8-6.6,12.8-8.6c4.8-2,9.9-3,15.1-3c5.3,0,10.3,1,15.1,3      c4.8,2,9.1,4.9,12.8,8.6C80.9,422.6,83.8,426.9,85.8,431.7z M69.1,447c0-1.8,0-3.1,0-4.1c0-0.9,0-1.7,0-2.3c0-0.6,0-1.2-0.1-1.9      c-0.1-2-0.4-3.7-0.9-4.8c-0.5-1.3-1.3-2.5-2.3-3.5c-1.1-1.1-2.2-1.8-3.5-2.3c-1.2-0.5-2.8-0.8-4.9-0.9c-0.7,0-1.3,0-1.9-0.1      c-0.6,0-1.3,0-2.3,0c-0.9,0-2.3,0-4.1,0c-1.8,0-3.2,0-4.1,0c-0.9,0-1.7,0-2.3,0c-0.6,0-1.2,0-1.9,0.1c-2.1,0.1-3.7,0.4-4.9,0.9      c-1.3,0.5-2.5,1.3-3.5,2.3c-1.1,1.1-1.8,2.3-2.3,3.5c-0.5,1.2-0.8,2.8-0.9,4.8c0,0.7,0,1.3-0.1,1.9c0,0.6,0,1.3,0,2.3      c0,0.9,0,2.3,0,4.1c0,1.8,0,3.2,0,4.1c0,0.9,0,1.7,0,2.3c0,0.6,0,1.2,0.1,1.9c0.1,2,0.4,3.7,0.9,4.8c0.5,1.3,1.3,2.5,2.3,3.5      c1.1,1.1,2.2,1.8,3.5,2.3c1.2,0.5,2.8,0.8,4.9,0.9c0.7,0,1.3,0.1,1.9,0.1c0.6,0,1.3,0,2.3,0s2.3,0,4.1,0c1.8,0,3.2,0,4.1,0      c0.9,0,1.7,0,2.3,0s1.2-0.1,1.9-0.1c2.1-0.1,3.7-0.4,4.9-0.9c1.3-0.5,2.5-1.3,3.5-2.3c1.1-1.1,1.8-2.3,2.3-3.5      c0.5-1.2,0.8-2.8,0.9-4.8c0-0.7,0.1-1.3,0.1-1.9c0-0.6,0-1.3,0-2.3C69.1,450.2,69.1,448.9,69.1,447z"
   id="path1310" />
				<path
   d="M70.6,261c0,0.1,0,0.3-0.1,0.4c-0.4,1-2.3,1.8-5.6,2.3c0,0.1-0.1,0.2-0.2,0.4c-0.1,0.2-0.1,0.4-0.2,0.6      c0,0.3-0.1,0.7-0.2,1c-0.2,0.5-0.5,0.8-1,0.8h0h0c-0.2,0-0.6,0-1-0.1c-0.6-0.2-1.4-0.3-2.3-0.3c-0.5,0-1.1,0-1.6,0.2      c-1,0.2-2,0.8-3,1.6c-0.8,0.6-1.6,1.1-2.5,1.6c-0.9,0.5-2,0.7-3.4,0.7c-0.1,0-0.2,0-0.3,0c-0.1,0-0.2,0-0.2,0      c-1.3,0-2.4-0.2-3.3-0.7c-0.9-0.5-1.8-1-2.5-1.6c-1-0.8-2-1.4-3-1.6c-0.6-0.1-1.1-0.2-1.6-0.2c-1,0-1.7,0.1-2.3,0.3      c-0.4,0.1-0.7,0.1-1,0.1c-0.3,0-0.6-0.1-0.8-0.2s-0.3-0.3-0.3-0.5c-0.1-0.3-0.2-0.7-0.2-1c0-0.2-0.1-0.3-0.2-0.6      c0-0.2-0.1-0.4-0.2-0.4c-3.3-0.5-5.2-1.3-5.7-2.3c0-0.1-0.1-0.3-0.1-0.4c0-0.2,0.1-0.4,0.2-0.6c0.1-0.2,0.3-0.3,0.5-0.3      c1.9-0.4,3.5-1.1,4.8-2.2c1.3-1.1,2.2-2.2,2.8-3.2c0.6-1,0.9-1.6,1-1.8l0,0c0.3-0.6,0.4-1.2,0.2-1.6c-0.2-0.4-0.6-0.7-1-0.9      c-0.5-0.2-0.9-0.4-1.4-0.5c-0.2-0.1-0.4-0.2-0.6-0.2c-1-0.4-1.6-0.8-1.8-1.2c-0.3-0.4-0.4-0.8-0.3-1.1c0.1-0.4,0.4-0.8,0.8-1      c0.4-0.3,0.9-0.4,1.3-0.4c0.2,0,0.5,0.1,0.7,0.2c0.8,0.3,1.4,0.5,2,0.5c0.4,0,0.7-0.1,0.8-0.2c0-0.3,0-0.6,0-0.9      c0-0.1,0-0.1,0-0.2c-0.1-1.5-0.2-3-0.1-4.6c0-1.6,0.3-2.9,0.7-4c0.7-1.6,1.6-2.8,2.6-3.8c1-0.9,2-1.6,3.1-2c1-0.4,2-0.7,2.9-0.9      c0.9-0.1,1.6-0.2,2-0.2c0,0,0.1,0,0.1,0c0.1,0,0.2,0,0.2,0c0.1,0,0.2,0,0.4,0c0,0,0.1,0,0.1,0c0.5,0,1.1,0.1,2,0.2      c0.9,0.1,1.9,0.4,2.9,0.9c1.1,0.5,2.1,1.1,3.1,2.1c1,0.9,1.9,2.2,2.6,3.8c0.5,1.1,0.7,2.4,0.7,4c0,1.6,0,3.1-0.1,4.6l0,0.1      c0,0.3,0,0.6,0,0.9c0.1,0.1,0.4,0.1,0.7,0.2c0.5,0,1.1-0.2,1.8-0.5c0.3-0.1,0.6-0.2,0.8-0.2c0.3,0,0.6,0.1,0.9,0.2      c0.8,0.3,1.3,0.8,1.3,1.5c0,0.8-0.7,1.5-2.2,2.1c-0.2,0.1-0.4,0.2-0.6,0.2c-0.4,0.1-0.9,0.3-1.4,0.5c-0.5,0.2-0.8,0.5-1,0.9      c-0.2,0.4-0.1,0.9,0.2,1.6c0,0,0,0,0,0c0,0.2,0.3,0.8,1,1.8c0.6,1,1.5,2.1,2.8,3.2c1.3,1.1,2.9,1.9,4.8,2.3      c0.2,0,0.4,0.1,0.5,0.3C70.5,260.6,70.6,260.8,70.6,261z M69.6,261.1C69.7,261.1,69.7,261,69.6,261.1c-2-0.5-3.8-1.3-5.1-2.5      c-1.4-1.2-2.4-2.3-3-3.4c-0.7-1.1-1-1.8-1.1-2c-0.4-0.9-0.5-1.6-0.2-2.3c0.3-0.6,0.7-1,1.3-1.3c0.6-0.3,1.1-0.5,1.6-0.6      c0.2-0.1,0.4-0.1,0.6-0.2c0.5-0.2,0.9-0.4,1.1-0.6s0.4-0.3,0.4-0.4c0.1-0.1,0.1-0.2,0.1-0.2c0-0.1-0.1-0.3-0.2-0.4      c-0.1-0.1-0.3-0.2-0.5-0.3v0c-0.2-0.1-0.4-0.1-0.6-0.1s-0.3,0-0.4,0.1c-0.8,0.4-1.6,0.6-2.2,0.6c-0.4,0-0.6-0.1-0.8-0.2      c-0.2-0.1-0.4-0.2-0.5-0.2c-0.1-0.1-0.2-0.1-0.2-0.2l-0.1-0.1l0-0.2c0-0.4,0-0.8,0.1-1.3c0.1-1.5,0.2-3,0.1-4.5      c0-1.5-0.2-2.8-0.6-3.8c-0.9-1.9-2-3.3-3.3-4.3c-1.3-0.9-2.6-1.5-3.8-1.7c-1.2-0.3-2.1-0.4-2.7-0.3c0,0,0,0-0.1,0      c-0.2,0-0.3,0-0.4,0c-0.1,0-0.2,0-0.2,0c-0.1,0-0.1,0-0.1,0c-0.4,0-1,0.1-1.8,0.2c-0.8,0.1-1.7,0.4-2.7,0.8      c-1,0.4-1.9,1.1-2.9,1.9c-0.9,0.9-1.7,2-2.4,3.5c-0.4,1-0.6,2.3-0.6,3.8c0,1.5,0,3,0.1,4.5c0.1,0.4,0.1,0.9,0.1,1.3l0,0.2      l-0.1,0.1c0,0-0.1,0.1-0.2,0.2c-0.1,0.1-0.3,0.2-0.5,0.3c-0.2,0.1-0.5,0.1-0.9,0.1c-0.7,0-1.5-0.2-2.4-0.6      c-0.1-0.1-0.2-0.1-0.3-0.1c-0.3,0-0.5,0.1-0.8,0.2c-0.3,0.1-0.4,0.3-0.4,0.5c-0.1,0.2,0,0.3,0.3,0.6c0.2,0.2,0.7,0.5,1.3,0.7      c0.1,0.1,0.3,0.1,0.6,0.2c0.5,0.1,1,0.4,1.6,0.6c0.6,0.3,1,0.7,1.3,1.3c0.3,0.7,0.2,1.4-0.2,2.3c0,0.2-0.4,0.9-1.1,2      c-0.7,1.1-1.7,2.2-3,3.4s-3.1,1.9-5.1,2.4c0,0,0,0,0,0.1c0,0.1,0.1,0.2,0.4,0.4c0.3,0.2,0.7,0.4,1.4,0.7      c0.7,0.2,1.8,0.5,3.1,0.7c0.3,0.1,0.5,0.3,0.7,0.6c0.1,0.3,0.2,0.7,0.3,1.1c0.1,0.3,0.2,0.6,0.2,0.9c0,0,0,0.1,0,0.1      c0,0,0,0,0.1,0s0.1,0,0.1,0c0.2,0,0.5,0,0.8-0.1c0.6-0.2,1.4-0.3,2.4-0.3c0.6,0,1.2,0.1,1.8,0.2c1.3,0.3,2.4,0.9,3.4,1.7      c0.8,0.6,1.5,1.1,2.4,1.5c0.8,0.4,1.8,0.7,3,0.7c0.1,0,0.1,0,0.2,0h0c0.1,0,0.2,0,0.3,0c1.2,0,2.2-0.2,3-0.7      c0.8-0.4,1.6-0.9,2.4-1.5c1-0.9,2.2-1.4,3.4-1.7c0.6-0.1,1.2-0.2,1.8-0.2c1,0,1.9,0.1,2.4,0.3c0.3,0,0.6,0.1,0.8,0.1      c0,0,0,0,0.1,0c0,0,0,0,0.1,0c0,0,0,0,0-0.1c0.1-0.3,0.2-0.6,0.2-1c0.1-0.4,0.2-0.8,0.3-1.1c0.1-0.3,0.4-0.5,0.7-0.6      c1.4-0.2,2.4-0.4,3.1-0.7c0.7-0.2,1.2-0.5,1.4-0.7C69.5,261.3,69.6,261.2,69.6,261.1z"
   id="path1312" />
				<path
   class="st6"
   d="M70,341.6V361H59.2v-3.2h6.7v-1.6h-0.4c-1,0-3.1-0.1-6.3-0.2v-14.3H70z M66.1,352.3V352c0-1-0.1-3.3-0.2-7      h-2.6v7.5c1.3-0.1,2.2-0.2,2.5-0.2H66.1z"
   id="path1314" />
				<path
   class="st6"
   d="M69.7,261C69.7,261,69.7,261.1,69.7,261c0,0.2-0.2,0.3-0.4,0.5c-0.3,0.2-0.7,0.4-1.4,0.7      c-0.7,0.2-1.8,0.5-3.1,0.7c-0.3,0.1-0.6,0.2-0.7,0.6c-0.1,0.3-0.2,0.7-0.3,1.1c-0.1,0.3-0.2,0.6-0.2,1c0,0,0,0.1,0,0.1      c0,0-0.1,0-0.1,0c0,0-0.1,0-0.1,0c-0.2,0-0.5,0-0.8-0.1c-0.6-0.2-1.4-0.3-2.4-0.3c-0.6,0-1.2,0.1-1.8,0.2      c-1.3,0.3-2.4,0.9-3.4,1.7c-0.8,0.6-1.5,1.1-2.4,1.5c-0.8,0.4-1.8,0.7-3,0.7c-0.1,0-0.2,0-0.3,0h0c-0.1,0-0.1,0-0.2,0      c-1.2,0-2.2-0.2-3-0.7c-0.8-0.4-1.6-0.9-2.4-1.5c-1-0.9-2.2-1.4-3.4-1.7c-0.6-0.1-1.2-0.2-1.8-0.2c-1,0-1.9,0.1-2.4,0.3      c-0.3,0.1-0.6,0.1-0.8,0.1c0,0-0.1,0-0.1,0s0,0-0.1,0c0,0,0,0,0-0.1c-0.1-0.3-0.2-0.6-0.2-0.9c-0.1-0.5-0.2-0.8-0.3-1.1      c-0.1-0.3-0.4-0.5-0.7-0.6c-1.4-0.2-2.4-0.4-3.1-0.7c-0.7-0.2-1.2-0.5-1.4-0.7c-0.3-0.2-0.4-0.3-0.4-0.4c0,0,0,0,0-0.1      c2.1-0.4,3.8-1.2,5.1-2.4s2.3-2.3,3-3.4c0.7-1.1,1-1.8,1.1-2c0.4-0.9,0.5-1.6,0.2-2.3c-0.3-0.6-0.7-1-1.3-1.3      c-0.6-0.3-1.1-0.5-1.6-0.6c-0.2-0.1-0.4-0.1-0.6-0.2c-0.6-0.3-1.1-0.5-1.3-0.7c-0.2-0.2-0.3-0.4-0.3-0.6c0-0.2,0.2-0.4,0.4-0.5      c0.3-0.2,0.5-0.2,0.8-0.2c0.1,0,0.2,0,0.3,0.1c0.9,0.4,1.7,0.6,2.4,0.6c0.4,0,0.7,0,0.9-0.1c0.2-0.1,0.4-0.2,0.5-0.3      c0.1-0.1,0.2-0.2,0.2-0.2l0.1-0.1l0-0.2c0-0.4,0-0.8-0.1-1.3c-0.1-1.5-0.2-3-0.1-4.5c0-1.5,0.2-2.8,0.6-3.8      c0.7-1.4,1.5-2.6,2.4-3.5c0.9-0.8,1.9-1.5,2.9-1.9c1-0.4,1.9-0.7,2.7-0.8c0.8-0.1,1.4-0.2,1.8-0.2c0,0,0.1,0,0.1,0      c0.1,0,0.2,0,0.2,0c0.1,0,0.2,0,0.4,0c0,0,0.1,0,0.1,0c0.6,0,1.5,0.1,2.7,0.3c1.2,0.3,2.5,0.8,3.8,1.7c1.3,0.9,2.4,2.3,3.3,4.3      c0.4,1,0.6,2.3,0.6,3.8c0,1.5,0,3-0.1,4.5c-0.1,0.4-0.1,0.9-0.1,1.3l0,0.2l0.1,0.1c0,0,0.1,0.1,0.2,0.2c0.1,0.1,0.3,0.2,0.5,0.2      c0.2,0.1,0.5,0.1,0.8,0.2c0.7,0,1.4-0.2,2.2-0.6c0.1-0.1,0.3-0.1,0.4-0.1s0.4,0,0.6,0.1v0c0.2,0.1,0.4,0.1,0.5,0.3      c0.1,0.1,0.2,0.3,0.2,0.4c0,0,0,0.1-0.1,0.2c-0.1,0.1-0.2,0.3-0.4,0.4s-0.6,0.4-1.1,0.6c-0.1,0.1-0.3,0.1-0.6,0.2      c-0.5,0.1-1.1,0.4-1.6,0.6c-0.6,0.3-1,0.7-1.3,1.3c-0.3,0.7-0.2,1.4,0.2,2.3c0.1,0.2,0.4,0.9,1.1,2c0.7,1.1,1.7,2.2,3,3.4      C65.9,259.8,67.6,260.6,69.7,261z"
   id="path1316" />
				<path
   class="st6"
   d="M69.1,148c0,1,0.1,2.3,0.1,3.6c0,1.4-0.1,2.6-0.1,3.7c-0.1,1-0.1,2.1-0.2,3.2c-0.1,1.1-0.3,2-0.5,2.8      c-0.2,0.9-0.7,1.6-1.3,2.3c-0.6,0.6-1.4,1.1-2.2,1.3c-0.8,0.2-2.1,0.3-3.8,0.5c-1.7,0.1-3.4,0.2-5.3,0.2c-1.8,0-4,0.1-6.7,0.1      c-2.6,0-4.8-0.1-6.7-0.1c-1.8-0.1-3.6-0.1-5.3-0.2c-1.7-0.1-2.9-0.3-3.8-0.5c-0.9-0.2-1.6-0.7-2.2-1.3c-0.6-0.6-1-1.4-1.3-2.3      c-0.2-0.8-0.4-1.7-0.5-2.8c-0.1-1.1-0.2-2.1-0.2-3.2c-0.1-1-0.1-2.3-0.1-3.6c0-1.4,0.1-2.6,0.1-3.7c0.1-1,0.1-2.1,0.2-3.2      c0.1-1.1,0.3-2,0.5-2.9c0.2-0.8,0.7-1.6,1.3-2.2c0.6-0.6,1.4-1.1,2.2-1.3c0.8-0.2,2.1-0.3,3.8-0.5c1.7-0.1,3.4-0.2,5.3-0.2      c1.8,0,4-0.1,6.7-0.1c2.6,0.1,4.8,0.1,6.7,0.2c1.8,0,3.6,0.1,5.3,0.2c1.7,0.1,2.9,0.3,3.8,0.5c0.9,0.2,1.6,0.7,2.2,1.3      c0.6,0.6,1,1.4,1.3,2.2c0.2,0.8,0.4,1.8,0.5,2.9S69,147,69.1,148z M45.1,157.6l10.4-6l-10.4-6.1V157.6z"
   id="path1318" />
				<path
   class="st6"
   d="M69.1,443c0,0.9,0,2.3,0,4.1c0,1.8,0,3.2,0,4.1c0,0.9,0,1.7,0,2.3c0,0.6,0,1.2-0.1,1.9      c-0.1,2-0.4,3.7-0.9,4.8c-0.5,1.3-1.3,2.5-2.3,3.5c-1.1,1.1-2.2,1.8-3.5,2.3c-1.2,0.5-2.8,0.8-4.9,0.9c-0.7,0-1.3,0.1-1.9,0.1      s-1.3,0-2.3,0c-0.9,0-2.3,0-4.1,0c-1.8,0-3.1,0-4.1,0s-1.7,0-2.3,0c-0.6,0-1.2-0.1-1.9-0.1c-2.1-0.1-3.7-0.4-4.9-0.9      c-1.3-0.5-2.5-1.3-3.5-2.3c-1.1-1.1-1.8-2.3-2.3-3.5c-0.5-1.2-0.8-2.8-0.9-4.8c0-0.7,0-1.3-0.1-1.9c0-0.6,0-1.3,0-2.3      c0-0.9,0-2.3,0-4.1c0-1.8,0-3.1,0-4.1c0-0.9,0-1.7,0-2.3c0-0.6,0-1.2,0.1-1.9c0.1-2,0.4-3.7,0.9-4.8c0.5-1.3,1.3-2.5,2.3-3.5      c1.1-1.1,2.2-1.8,3.5-2.3c1.2-0.5,2.8-0.8,4.9-0.9c0.7,0,1.3,0,1.9-0.1c0.6,0,1.3,0,2.3,0c0.9,0,2.3,0,4.1,0c1.8,0,3.2,0,4.1,0      c0.9,0,1.7,0,2.3,0c0.6,0,1.2,0,1.9,0.1c2,0.1,3.7,0.4,4.9,0.9c1.3,0.5,2.5,1.3,3.5,2.3c1.1,1.1,1.8,2.3,2.3,3.5      c0.5,1.2,0.8,2.8,0.9,4.8c0,0.7,0.1,1.3,0.1,1.9C69,441.3,69.1,442,69.1,443z M65.5,451.1c0-0.9,0-2.3,0-4c0-1.8,0-3.1,0-4      c0-0.9,0-1.6,0-2.2c0-0.6-0.1-1.2-0.1-1.8c-0.1-1.9-0.4-3.1-0.7-3.7c-0.3-0.9-0.8-1.6-1.5-2.3c-0.6-0.7-1.4-1.2-2.3-1.5      c-0.6-0.3-1.9-0.5-3.7-0.7c-0.7,0-1.3-0.1-1.8-0.1c-0.6,0-1.3,0-2.2,0s-2.2,0-4,0c-0.2,0-0.5,0-0.7,0c-0.4,0-0.8,0-1.1,0      c-1.2,0-2.2,0-2.9,0c-0.7,0-1.3,0-1.8,0c-0.5,0-1,0-1.6,0.1c-1.9,0.1-3.1,0.4-3.7,0.7c-0.9,0.3-1.6,0.8-2.3,1.5      c-0.7,0.6-1.2,1.4-1.5,2.3c-0.3,0.6-0.5,1.9-0.7,3.7c0,0.7-0.1,1.3-0.1,1.8c0,0.6,0,1.3,0,2.2c0,0.9,0,2.2,0,4c0,1.8,0,3.1,0,4      c0,0.9,0,1.7,0,2.2c0,0.6,0,1.2,0.1,1.8c0.1,1.8,0.4,3.1,0.7,3.7c0.3,0.9,0.8,1.7,1.5,2.3c0.7,0.6,1.4,1.1,2.3,1.5      c0.6,0.3,1.8,0.5,3.7,0.7c0.7,0,1.3,0,1.8,0.1c0.6,0,1.3,0,2.2,0c0.9,0,2.3,0,4,0c1.8,0,3.1,0,4,0c0.9,0,1.6,0,2.2,0      c0.6,0,1.2,0,1.8-0.1c1.9-0.1,3.1-0.4,3.7-0.7c0.9-0.3,1.6-0.8,2.3-1.5c0.7-0.7,1.2-1.4,1.5-2.3c0.3-0.6,0.6-1.8,0.7-3.7      c0-0.7,0.1-1.3,0.1-1.8S65.5,452,65.5,451.1z"
   id="path1320" />
				<path
   class="st6"
   d="M68.1,47.5v11.7c0,0.8-0.3,1.5-0.8,2c-0.5,0.5-1.2,0.8-2,0.8c-0.8,0-1.5-0.3-2-0.8c-0.5-0.5-0.8-1.2-0.8-2      V47.5c0-0.8,0.3-1.4,0.8-2c0.5-0.5,1.2-0.8,2-0.8c0.8,0,1.4,0.3,2,0.8C67.9,46,68.1,46.7,68.1,47.5z"
   id="path1322" />
				<path
   d="M66.1,352v0.4h-0.3c-0.4,0-1.2,0.1-2.5,0.2V345h2.6C66,348.6,66.1,351,66.1,352z"
   id="path1324" />
				<path
   class="st28"
   d="M65.5,447c0,1.8,0,3.1,0,4c0,0.9,0,1.7,0,2.2s-0.1,1.2-0.1,1.8c-0.1,1.8-0.4,3.1-0.7,3.7      c-0.3,0.9-0.8,1.7-1.5,2.3c-0.6,0.7-1.4,1.2-2.3,1.5c-0.6,0.3-1.9,0.5-3.7,0.7c-0.7,0-1.3,0-1.8,0.1c-0.6,0-1.3,0-2.2,0      c-0.9,0-2.2,0-4,0c-1.8,0-3.1,0-4,0c-0.9,0-1.6,0-2.2,0c-0.6,0-1.2,0-1.8-0.1c-1.9-0.1-3.1-0.4-3.7-0.7      c-0.9-0.4-1.6-0.9-2.3-1.5c-0.7-0.7-1.2-1.4-1.5-2.3c-0.3-0.6-0.5-1.8-0.7-3.7c0-0.7-0.1-1.3-0.1-1.8c0-0.6,0-1.3,0-2.2      c0-0.9,0-2.3,0-4c0-1.8,0-3.1,0-4c0-0.9,0-1.6,0-2.2c0-0.6,0-1.2,0.1-1.8c0.1-1.9,0.4-3.1,0.7-3.7c0.3-0.9,0.8-1.6,1.5-2.3      c0.7-0.7,1.4-1.2,2.3-1.5c0.6-0.3,1.8-0.5,3.7-0.7c0.6-0.1,1.1-0.1,1.6-0.1c0.5,0,1.1,0,1.8,0c0.7,0,1.7,0,2.9,0      c0.3,0,0.7,0,1.1,0c0.2,0,0.4,0,0.7,0c1.8,0,3.1,0,4,0s1.6,0,2.2,0c0.6,0,1.2,0.1,1.8,0.1c1.9,0.1,3.1,0.4,3.7,0.7      c0.9,0.3,1.6,0.8,2.3,1.5c0.7,0.6,1.2,1.4,1.5,2.3c0.3,0.6,0.6,1.9,0.7,3.7c0,0.7,0.1,1.3,0.1,1.8c0,0.6,0,1.3,0,2.2      C65.5,443.9,65.5,445.3,65.5,447z M62.2,436.4c0-0.6-0.2-1.2-0.7-1.7c-0.5-0.5-1-0.7-1.7-0.7c-0.7,0-1.2,0.2-1.7,0.7      c-0.5,0.5-0.7,1-0.7,1.7c0,0.7,0.2,1.2,0.7,1.7c0.5,0.5,1,0.7,1.7,0.7c0.6,0,1.2-0.2,1.7-0.7C61.9,437.6,62.2,437.1,62.2,436.4z       M59.4,447c0-2.8-1-5.3-3-7.3s-4.4-3-7.3-3c-2.8,0-5.2,1-7.2,3s-3,4.4-3,7.3c0,2.9,1,5.3,3,7.3s4.4,3,7.2,3c2.8,0,5.3-1,7.3-3      S59.4,449.9,59.4,447z"
   id="path1326" />
				<path
   class="st6"
   d="M61.5,434.7c0.5,0.5,0.7,1,0.7,1.7c0,0.7-0.2,1.2-0.7,1.7c-0.5,0.5-1,0.7-1.7,0.7c-0.7,0-1.2-0.2-1.7-0.7      c-0.5-0.5-0.7-1-0.7-1.7c0-0.6,0.2-1.2,0.7-1.7c0.5-0.5,1-0.7,1.7-0.7C60.5,434,61,434.3,61.5,434.7z"
   id="path1328" />
				<path
   class="st6"
   d="M61.6,44.3h-25c0-2.2,0.6-4.1,1.8-5.9c1.2-1.8,2.7-3.2,4.7-4.2c-1.3-2.2-2-3.3-2-3.4c0-0.2,0.1-0.3,0.4-0.3      c0.1,0,0.9,1.1,2.2,3.4c1.6-0.8,3.4-1.2,5.4-1.2c1.8,0,3.6,0.4,5.5,1.2c1.3-2.3,2-3.4,2.2-3.4c0.2,0,0.4,0.1,0.4,0.4l0,0.2      l-1.8,3.3c1.9,0.9,3.5,2.3,4.6,4.1C61,40.2,61.6,42.1,61.6,44.3z M55.9,38.7c0-0.3-0.1-0.5-0.3-0.7c-0.2-0.2-0.5-0.3-0.8-0.3      c-0.2,0-0.5,0.1-0.6,0.3c-0.2,0.2-0.3,0.4-0.3,0.7c0,0.7,0.3,1.1,0.9,1.1C55.5,39.8,55.9,39.4,55.9,38.7z M44.5,38.7      c0-0.3-0.1-0.5-0.3-0.7c-0.2-0.2-0.5-0.3-0.8-0.3c-0.2,0-0.5,0.1-0.7,0.3c-0.2,0.2-0.3,0.4-0.3,0.7c0,0.3,0.1,0.6,0.3,0.8      c0.2,0.2,0.4,0.3,0.7,0.3c0.3,0,0.5-0.1,0.8-0.3C44.3,39.3,44.5,39,44.5,38.7z"
   id="path1330" />
				<path
   class="st6"
   d="M61.5,45.3v18.1c0,0.8-0.3,1.5-0.9,2.1c-0.6,0.6-1.3,0.9-2.1,0.9h-1.9v6c0,0.8-0.3,1.5-0.8,2.1      c-0.6,0.5-1.2,0.8-2,0.8c-0.8,0-1.5-0.3-2-0.8c-0.5-0.6-0.8-1.3-0.8-2.1v-6h-3.8v6c0,0.8-0.3,1.5-0.8,2.1      c-0.5,0.5-1.2,0.8-1.9,0.8s-1.4-0.3-1.9-0.8c-0.5-0.6-0.8-1.3-0.8-2.1v-6h-2c-0.8,0-1.5-0.3-2.1-0.9c-0.6-0.6-0.9-1.3-0.9-2.1      V45.3H61.5z"
   id="path1332" />
				<path
   class="st6"
   d="M56.4,439.8c2,2,3,4.4,3,7.3c0,2.9-1,5.3-3,7.3s-4.4,3-7.3,3c-2.8,0-5.2-1-7.2-3s-3-4.4-3-7.3      c0-2.8,1-5.3,3-7.3s4.4-3,7.2-3C52,436.8,54.4,437.8,56.4,439.8z M55.8,447c0-1.8-0.7-3.4-2-4.7c-1.3-1.3-2.9-2-4.7-2      c-1.8,0-3.4,0.7-4.7,2c-1.3,1.3-2,2.9-2,4.7c0,1.8,0.7,3.4,2,4.7c1.3,1.3,2.9,2,4.7,2c1.8,0,3.4-0.7,4.7-2      C55.1,450.5,55.8,448.9,55.8,447z"
   id="path1334" />
				<path
   class="st6"
   d="M57.4,341.6V361H46.5v-3.2h6.8l0.2-1.6h-0.5c-0.9,0-3-0.1-6.4-0.2v-14.3H57.4z M53.3,352.5V345h-2.6v7.5      H53.3z"
   id="path1336" />
				<path
   class="st24"
   d="M55.5,38c0.2,0.2,0.3,0.4,0.3,0.7c0,0.7-0.4,1.1-1.1,1.1c-0.6,0-0.9-0.4-0.9-1.1c0-0.3,0.1-0.5,0.3-0.7      c0.2-0.2,0.4-0.3,0.6-0.3C55,37.7,55.3,37.8,55.5,38z"
   id="path1338" />
				<polygon
   class="st25"
   points="55.5,151.6 45.1,157.6 45.1,145.6     "
   id="polygon1340" />
				<path
   class="st28"
   d="M53.8,442.4c1.3,1.3,2,2.9,2,4.7c0,1.8-0.7,3.4-2,4.7c-1.3,1.3-2.9,2-4.7,2c-1.8,0-3.4-0.7-4.7-2      c-1.3-1.3-2-2.9-2-4.7c0-1.8,0.7-3.4,2-4.7c1.3-1.3,2.9-2,4.7-2C51,440.4,52.5,441,53.8,442.4z"
   id="path1342" />
				<rect
   x="50.7"
   y="345"
   width="2.6"
   height="7.5"
   id="rect1344" />
				<path
   class="st6"
   d="M44.7,340h0.1c0,0-0.1,0-0.4,0c-0.5,0-1.8-0.1-4-0.2v-4h4.2V340z"
   id="path1346" />
				<rect
   x="40.5"
   y="341.6"
   class="st6"
   width="4.2"
   height="14.3"
   id="rect1348" />
				<path
   class="st24"
   d="M44.1,38c0.2,0.2,0.3,0.4,0.3,0.7c0,0.3-0.1,0.6-0.3,0.8c-0.2,0.2-0.5,0.3-0.8,0.3c-0.2,0-0.5-0.1-0.7-0.3      c-0.2-0.2-0.3-0.5-0.3-0.8c0-0.3,0.1-0.5,0.3-0.7c0.2-0.2,0.4-0.3,0.7-0.3C43.7,37.7,43.9,37.8,44.1,38z"
   id="path1350" />
				<path
   class="st6"
   d="M38.8,335.8V356H28v-14.3h6.8l0.1-5.8H38.8z M34.7,352.5V345h-2.6c-0.1,3.7-0.2,6.1-0.2,7.1v0.6l0.1-0.2      H34.7z"
   id="path1352" />
				<path
   class="st6"
   d="M35.6,47.5v11.7c0,0.8-0.3,1.5-0.8,2c-0.5,0.5-1.2,0.8-2,0.8c-0.8,0-1.4-0.3-2-0.8c-0.6-0.5-0.8-1.2-0.8-2      V47.5c0-0.8,0.3-1.4,0.8-2c0.5-0.5,1.2-0.8,2-0.8c0.8,0,1.5,0.3,2,0.8C35.3,46,35.6,46.7,35.6,47.5z"
   id="path1354" />
				<path
   d="M34.7,345v7.5H32l-0.1,0.2v-0.6c0-1,0-3.4,0.2-7.1H34.7z"
   id="path1356" />
			</g>
			<g
   id="g1360">
			</g>
		</g>
	</g>
	<g
   id="g1374">
		<g
   id="XMLID_3_">
			<g
   id="g1369">
				<path
   class="st8"
   d="M340.9,151.9c0-0.2-0.1-0.3-0.3-0.5c-1.2-1.3-1.7-3-1.7-5c0-2.8,0.8-5.2,2.5-7.3c0.5-0.6,1-1.2,1.7-1.7      c2.2-1.7,4.7-2.6,7.6-2.6c2.9,0,5.3,0.8,7.1,2.3c2,1.8,3,4.1,3,7c0,2.9-0.5,5.5-1.6,7.9c-0.3,0.7-0.6,1.3-1,1.8      c-1.5,2.1-3.2,3.2-5.1,3.2c-0.9,0-1.8-0.3-2.5-0.8c-0.9-0.8-1.4-1.7-1.4-2.8v-0.2c0-0.5,0.3-1.6,0.8-3.3c0.9-3,1.4-5,1.4-6.1      c0-0.7-0.1-1.4-0.4-1.9c-0.6-1.1-1.6-1.7-2.8-1.7c-1.2,0-2.2,0.5-3.1,1.6c-1,1.3-1.6,2.8-1.6,4.6c0,1.4,0.3,2.7,0.8,3.8l-0.7,3      l-2.8-0.7C340.9,152.1,340.9,152,340.9,151.9z"
   id="path1365" />
				<path
   class="st6"
   d="M340.4,154.2c0,0.3-0.1,0.6-0.3,0.7c-0.2,0-0.3,0.1-0.4,0.1h-0.1c-0.3,0-0.9-0.3-1.9-0.8      c-0.7-0.6-1.2-1.1-1.6-1.6c-1.3-1.8-1.9-4.1-1.9-6.8c0-2.7,0.9-5.4,2.6-8c0.3-0.5,0.9-1.2,1.7-2.1c0.9-0.8,1.6-1.4,2.1-1.7      c3-2.2,6.6-3.3,10.8-3.3c3.2,0,6.1,0.8,8.6,2.4c2.7,1.7,4.7,3.9,5.9,6.8c0.5,1.6,0.8,3.1,0.8,4.7c0,4.1-1,7.7-2.9,10.8      c-1.6,2.3-3.5,4-5.9,4.9c-1.4,0.5-2.7,0.8-4.1,0.8h0c0,0-0.1,0-0.2,0c-1.4,0-2.8-0.4-4.1-1.3c-0.3-0.2-0.6-0.4-1.1-0.8      c-0.3-0.3-0.5-0.6-0.7-0.9c-0.8,3.3-1.3,5.7-1.7,7.1c-0.5,1.1-0.9,2.1-1.4,3c-0.6,1-1.3,2.2-2.3,3.4c-0.4,0.6-0.7,0.9-0.8,1      c0,0-0.1,0-0.1,0h-0.1c-0.1-0.1-0.2-0.2-0.2-0.5c-0.2-1.5-0.3-3-0.3-4.3v-0.5c0-1.7,0.2-3.4,0.6-5l2.2-9.3l0.7-3      c-0.5-1.1-0.8-2.4-0.8-3.8c0-1.8,0.5-3.3,1.6-4.6c0.9-1.1,1.9-1.6,3.1-1.6c1.3,0,2.2,0.6,2.8,1.7c0.3,0.6,0.4,1.2,0.4,1.9      c0,1.1-0.5,3.1-1.4,6.1c-0.5,1.7-0.8,2.8-0.8,3.3v0.2c0,1.1,0.5,2,1.4,2.8c0.8,0.5,1.6,0.8,2.5,0.8c1.9,0,3.7-1.1,5.1-3.2      c0.3-0.5,0.6-1.1,1-1.8c1-2.4,1.6-5,1.6-7.9c0-2.9-1-5.2-3-7c-1.9-1.5-4.2-2.3-7.1-2.3c-2.8,0-5.4,0.8-7.6,2.6      c-0.7,0.5-1.3,1.1-1.7,1.7c-1.6,2.1-2.5,4.6-2.5,7.3c0,2,0.6,3.6,1.7,5c0.2,0.2,0.3,0.4,0.3,0.5c0,0.1,0,0.2-0.1,0.5      C340.7,152.8,340.6,153.4,340.4,154.2z"
   id="path1367" />
			</g>
			<g
   id="g1371">
			</g>
		</g>
	</g>
</g>
</svg>